<?xml version="1.0" encoding="UTF-8"?><svg id="a" xmlns="http://www.w3.org/2000/svg" viewBox="0 0 216.34 222.64"><defs><style>.b{fill:#fff;}.c{fill:#2aac69;}</style></defs><path class="c" d="M151.32,85.95v-27.77c0-23.79-19.36-43.15-43.15-43.15s-43.15,19.36-43.15,43.15v27.09c-11.21,.61-20.15,9.9-20.15,21.26v79.66c0,11.76,9.56,21.32,21.32,21.32h79.66c11.76,0,21.32-9.56,21.32-21.32V106.53c0-9.86-6.74-18.16-15.85-20.58Zm-32.05-.74h-22.19v-25.12c0-7.12,4.98-12.91,11.1-12.91s11.1,5.79,11.1,12.91v25.12Zm-11.1-58.18c17.18,0,31.15,13.97,31.15,31.15v27.03h-8.05v-25.12c0-13.74-10.36-24.91-23.1-24.91s-23.1,11.17-23.1,24.91v25.12h-8.05v-27.03c0-17.18,13.97-31.15,31.15-31.15Z"/><path class="b" d="M100.55,166.53c-1.79,0-3.58-.68-4.95-2.05l-13.84-13.84c-2.73-2.73-2.73-7.17,0-9.9,2.73-2.73,7.17-2.73,9.9,0l8.89,8.9,24.14-24.14c2.73-2.73,7.17-2.73,9.9,0,2.73,2.73,2.73,7.17,0,9.9l-29.09,29.09c-1.37,1.37-3.16,2.05-4.95,2.05Z"/></svg>