<?xml version="1.0" encoding="UTF-8"?><svg id="a" xmlns="http://www.w3.org/2000/svg" viewBox="0 0 216.34 222.64"><defs><style>.b{fill:#fff;}.c{fill:#2aac69;}</style></defs><rect class="c" x="21.86" y="28.3" width="172.63" height="120.03" rx="20.9" ry="20.9"/><path class="b" d="M33.53,127.86c-2.45,0-4.91-.89-6.83-2.7-2.1-1.97-3.16-4.63-3.16-7.3,0-2.45,.9-4.9,2.7-6.83L99.93,32.35c3.78-4.03,10.1-4.24,14.13-.46,2.1,1.97,3.16,4.63,3.16,7.3,0,2.45-.9,4.9-2.7,6.83L40.83,124.69c-1.97,2.1-4.63,3.16-7.3,3.16Z"/><path class="b" d="M141.53,37.05c-2-1.91-5.16-1.84-7.07,.16L41.41,134.47c-.93,.97-1.39,2.21-1.39,3.45,0,1.32,.52,2.63,1.54,3.61,.97,.93,2.21,1.39,3.46,1.39,1.32,0,2.63-.52,3.61-1.54L141.68,44.12c.93-.97,1.39-2.21,1.39-3.45,0-1.32-.52-2.63-1.54-3.61Z"/><path class="c" d="M188.95,159.27h-62.1v-8.92h46.73c12.08,0,21.9-9.82,21.9-21.9V50.22c0-12.08-9.82-21.9-21.9-21.9H42.76c-12.08,0-21.9,9.82-21.9,21.9v78.22c0,12.08,9.82,21.9,21.9,21.9h46.73v8.92H27.39c-7.19,0-13.05,5.85-13.05,13.05v8.98c0,7.19,5.85,13.05,13.05,13.05H188.95c7.19,0,13.05-5.85,13.05-13.05v-8.98c0-7.19-5.85-13.05-13.05-13.05Zm-154.1-30.82V50.22c0-4.36,3.54-7.9,7.9-7.9H173.58c4.36,0,7.9,3.54,7.9,7.9v78.22c0,4.36-3.54,7.9-7.9,7.9H42.76c-4.36,0-7.9-3.54-7.9-7.9Zm80,22.08v7.26h-13.36v-7.26h13.36Zm75.15,30.77c0,.58-.47,1.05-1.05,1.05H27.39c-.58,0-1.05-.47-1.05-1.05v-8.98c0-.58,.47-1.05,1.05-1.05H188.95c.58,0,1.05,.47,1.05,1.05v8.98Z"/></svg>