<svg id="Layer_1" data-name="Layer 1" xmlns="http://www.w3.org/2000/svg" viewBox="0 0 124.8408 93.22791"><defs><style>.cls-1{fill:#34ad6d;}.cls-2{fill:#fff;}.cls-3{fill:#1f1f1f;}.cls-4{fill:#f4f3f4;}.cls-5{fill:#f5ea60;}.cls-6{fill:#0b8873;}</style></defs><path class="cls-1" d="M107.1825,3.7412c12.87843-1.13629,23.62529.95187,37.91772,24.742,14.08852,23.45072,35.69844,59.40542-11.9087,59.40542H73.11222S49.39743,89.75536,51.04485,68.20138c1.60436-20.99062,24.33106-28.49606,31.34544-41.864S97.49844,4.59564,107.1825,3.7412Z" transform="translate(-37.5796 -3.16238)"/><path class="cls-2" d="M67.92717,89.51651c-3.22557,0-11.59629-.54253-16.85729-5.79175-3.4933-3.48522-5.02425-8.39463-4.55042-14.59218C47.5402,55.77768,57.07581,47.59184,65.489,40.36984c5.24686-4.50428,10.20308-8.75868,12.87433-13.85012,7.72548-14.723,16.04434-22.2828,25.43143-23.11108,5.93588-.52385,12.33246-.5092,18.89608,3.10955,6.72292,3.70648,13.04777,10.74848,19.90438,22.16157,9.60161,15.98253,22.73929,37.85094,15.5513,50.55453-3.84691,6.79835-13.2441,10.24551-27.93058,10.24551H69.25437C69.23653,89.48149,68.74855,89.51651,67.92717,89.51651ZM103.825,3.75214l.03031.3435c-9.13485.80606-17.27353,8.24578-24.88114,22.74469-2.73288,5.20812-7.7376,9.50428-13.036,14.05285C57.22062,48.37651,48.206,56.11478,47.20714,69.18511c-.45767,5.98607,1.00525,10.71261,4.34735,14.049,6.37334,6.3619,17.56013,5.56443,17.67294,5.557l60.98847-.001c14.41976,0,23.61489-3.32929,27.33012-9.89527,6.99-12.35369-6.02782-34.0229-15.53311-49.845C127.07014,4.17748,115.89347,3.03465,103.85533,4.09564Z" transform="translate(-37.5796 -3.16238)"/><polygon class="cls-3" points="4.65 89.23 26.372 86.637 26.372 81.663 4.65 89.23"/><path class="cls-4" d="M39.11762,93.11084l25.17851-8.77046v5.7648Zm24.48881-7.7999L45.34111,91.67351l18.26532-2.18057Z" transform="translate(-37.5796 -3.16238)"/><polygon class="cls-3" points="2.208 89.301 22.698 69.591 23.463 77.483 2.208 89.301"/><path class="cls-4" d="M37.63719,94.05346,60.5516,72.0106l.85573,8.82671ZM60.00267,73.49575,41.93839,90.873,60.67721,80.45407Z" transform="translate(-37.5796 -3.16238)"/><polygon class="cls-3" points="2.723 89.74 32.224 81.493 23.977 77.922 2.723 89.74"/><path class="cls-4" d="M37.5796,94.02146,61.538,80.70092l9.29549,4.02472ZM61.57571,81.46875,43.02447,91.7833l25.74934-7.19776Z" transform="translate(-37.5796 -3.16238)"/><path class="cls-3" d="M75.69083,51.76991a5.32517,5.32517,0,0,0-1.87344-2.28918l-.00459-.01-.011-.00111a5.34874,5.34874,0,0,0-5.1443-.51691l0,0,0,0a5.34867,5.34867,0,0,0-3.17738,4.07864l-.00682.00874.00411.01026a5.33168,5.33168,0,0,0,2.029,5.07677l.00194.00485c1.82711,1.837,2.49578,1.501,3.78058,4.28829l.12613.29469,2.64772-1.13325,2.64773-1.13324-.12613-.29468c-1.12956-2.8537-.42485-3.1055-.49257-5.69558l-.00218-.00475A5.32812,5.32812,0,0,0,75.69083,51.76991Z" transform="translate(-37.5796 -3.16238)"/><path class="cls-4" d="M71.2339,63.16739l-.262-.61157a6.14071,6.14071,0,0,0-2.20246-2.86893,14.52618,14.52618,0,0,1-1.50468-1.3107A5.67587,5.67587,0,0,1,65.12189,53.097l-.04378-.101.07577-.10305a5.69179,5.69179,0,0,1,8.76743-3.75868l.11552.01044.05152.10541a5.676,5.676,0,0,1,2.34829,5.2,14.47992,14.47992,0,0,1-.09093,1.994,6.1543,6.1543,0,0,0,.55937,3.58255l.258.60315Zm-3.43167-5.229A14.02717,14.02717,0,0,0,69.19376,59.143a6.76823,6.76823,0,0,1,2.40217,3.11915l4.66256-1.99536a6.7725,6.7725,0,0,1-.59878-3.89136,14.07049,14.07049,0,0,0,.08925-1.832l-.01112-.02189.00876-.10541a5.01287,5.01287,0,0,0-.3728-2.51061h0a4.99776,4.99776,0,0,0-1.75288-2.14117l-.04816-.03334a5.00223,5.00223,0,0,0-7.75208,3.35522l-.00236.01752a4.98554,4.98554,0,0,0,1.89736,4.74944Z" transform="translate(-37.5796 -3.16238)"/><path class="cls-3" d="M71.69791,61.44656H77.2204a.28569.28569,0,0,1,.28569.28569v1.55112a.28571.28571,0,0,1-.28571.28571H71.69791a.2857.2857,0,0,1-.2857-.2857V61.73227A.28571.28571,0,0,1,71.69791,61.44656Z" transform="translate(-56.16876 31.17798) rotate(-23.17113)"/><path class="cls-4" d="M72.227,64.93779a.63218.63218,0,0,1-.58092-.3819l-.61023-1.42655a.63106.63106,0,0,1,.33172-.82778l5.07679-2.17283a.63264.63264,0,0,1,.82777.331l.61023,1.42622a.63122.63122,0,0,1-.33172.82811l-5.07679,2.17283A.628.628,0,0,1,72.227,64.93779Zm-.53378-2.02533.56342,1.31744L77.225,62.1032l-.56342-1.31743Z" transform="translate(-37.5796 -3.16238)"/><path class="cls-3" d="M76.48578,66.8658A1.828,1.828,0,0,0,77.51755,64.662l-3.33848,1.42889A1.828,1.828,0,0,0,76.48578,66.8658Z" transform="translate(-37.5796 -3.16238)"/><path class="cls-4" d="M75.76647,67.35882a2.171,2.171,0,0,1-1.88725-1.0972l-.19129-.33575,4.04931-1.733.1108.37011a2.17448,2.17448,0,0,1-2.08157,2.79586Zm-1.048-1.1238a1.48353,1.48353,0,0,0,2.53115-1.08339Z" transform="translate(-37.5796 -3.16238)"/><path class="cls-3" d="M78.40064,63.97322l-.61033-1.426a.28656.28656,0,0,0-.37507-.15024l-5.077,2.173a.28656.28656,0,0,0-.15024.37508l.61035,1.426a.2865.2865,0,0,0,.37505.15023l1.00568-.43043L77.51755,64.662l.73285-.31366A.28655.28655,0,0,0,78.40064,63.97322Z" transform="translate(-37.5796 -3.16238)"/><path class="cls-4" d="M73.06154,66.88936a.63383.63383,0,0,1-.58025-.38223l-.61022-1.42622a.63123.63123,0,0,1,.33171-.82811L77.27957,62.08a.63235.63235,0,0,1,.82778.331l.61056,1.42689a.632.632,0,0,1-.33138.82744l-5.07746,2.17283A.62783.62783,0,0,1,73.06154,66.88936ZM72.5281,64.8637l.56375,1.31744,4.96869-2.12636L77.49679,62.737Zm5.55534-.75538v0Z" transform="translate(-37.5796 -3.16238)"/><path class="cls-3" d="M73.34287,61.60277,71.50554,57.31a1.28988,1.28988,0,0,0-1.7062-.29195c-1.20144.51422.67789,1.65846,1.82008.03557a3.2267,3.2267,0,0,0,.45772-1.61743c-.02079-.86957-.69754-.88339-.981-.76206s-.27414.74025.01874,1.126a2.51787,2.51787,0,0,0,2.12242.81659c.93517-.12873,1.49463-.79943,1.10537-1.2238s-1.71031.22092-1.53141,1.0867l1.93555,4.52225" transform="translate(-37.5796 -3.16238)"/><path class="cls-4" d="M73.02585,61.73848l-1.67408-3.91123a1.83016,1.83016,0,0,1-1.57978.3526.86177.86177,0,0,1-.70284-.71429c-.00976-.14919.02863-.52233.5944-.76446a1.80452,1.80452,0,0,1,1.73638.04108c.02559-.04883.05691-.11248.08991-.18791a2.31851,2.31851,0,0,1-.64962-.54557,1.44449,1.44449,0,0,1-.26-1.177.68367.68367,0,0,1,.38021-.47485,1.0953,1.0953,0,0,1,.98236.07577,1.12859,1.12859,0,0,1,.47922.99516,3.00806,3.00806,0,0,1-.08419.76042q.05707.01869.11618.03435a1.45075,1.45075,0,0,1,.84765-1.12986,1.07329,1.07329,0,0,1,1.29521.06735.79311.79311,0,0,1,.164.82812,1.74908,1.74908,0,0,1-1.37637.95406l1.67912,3.924-.63379.27144-1.78825-4.17863a2.86462,2.86462,0,0,1-.524-.11921,3.26278,3.26278,0,0,1-.20745.39974l-.03738.05186,1.7869,4.1756ZM69.7767,57.42683a.62171.62171,0,0,0,.35294.11754,1.206,1.206,0,0,0,.81363-.26975,1.19724,1.19724,0,0,0-1.00829.06028A.61068.61068,0,0,0,69.7767,57.42683Zm4.20759-1.82326a.83632.83632,0,0,0-.36842.10305.81522.81522,0,0,0-.47384.57419l.04816-.00572a1.15915,1.15915,0,0,0,.92207-.52065.10688.10688,0,0,0-.02391-.12831A.16542.16542,0,0,0,73.98429,55.60357Zm-2.72985-.62067a.74544.74544,0,0,0,.13538.60888,1.42342,1.42342,0,0,0,.30949.27918,2.20793,2.20793,0,0,0,.033-.42635.53.53,0,0,0-.16266-.43173A.40788.40788,0,0,0,71.25444,54.9829Z" transform="translate(-37.5796 -3.16238)"/><path class="cls-5" d="M84.55337,43.86921c.15071.03016.29519.05274.43851.07391l-.37168-.24785a.65653.65653,0,0,0-.06353.14744Z" transform="translate(-37.5796 -3.16238)"/><path class="cls-3" d="M69.80349,96.04417c0-6.00641,5.15332-27.65946,17.23807-27.65946s14.623-1.48115,18.679,7.27131,4.90991,20.2469,4.90991,20.2469Z" transform="translate(-37.5796 -3.16238)"/><path class="cls-4" d="M69.45879,96.3903v-.3462c0-2.971,1.2777-9.969,4.118-16.22451,2.44023-5.37415,6.75693-11.77983,13.46468-11.77983,1.68317,0,3.19325-.029,4.5255-.05455,8.35557-.16266,10.88167-.20947,14.46657,7.52577,4.03584,8.7085,4.93232,20.2509,4.94074,20.36642l.02761.3691ZM94.54941,68.63483c-.89547,0-1.87917.01886-2.96929.03974-1.33529.02593-2.84873.05489-4.53864.05489-11.4242,0-16.70709,20.228-16.88827,26.96844l40.1014-.13841c-.18859-2.03308-1.26861-12.03713-4.84677-19.75822C102.46246,69.44543,100.40884,68.63483,94.54941,68.63483Z" transform="translate(-37.5796 -3.16238)"/><path class="cls-3" d="M89.72,60.15235v5.53724s-4.09026.227-5.73255,2.69512,6.34923,3.92451,9.45151,3.14295,4.96367-1.87528,5.6874-3.14295-3.92585-2.62824-4.96328-2.69512v-3.022Z" transform="translate(-37.5796 -3.16238)"/><path class="cls-4" d="M91.36054,72.07526c-2.83626,0-6.65253-.79545-7.66216-2.22368a1.388,1.388,0,0,1,.00169-1.65791C85.15928,66.001,88.34141,65.485,89.375,65.37356V59.56094l5.133,2.90564V65.3867c1.22079.20576,4.29784,1.115,4.91683,2.2651a.89244.89244,0,0,1,.001.90389c-.80454,1.40972-2.79081,2.5224-5.90289,3.3064A9.26009,9.26009,0,0,1,91.36054,72.07526ZM90.06466,60.74367v5.27178l-.32566.01818c-.03906.00236-3.93884.24887-5.46441,2.54193a.69561.69561,0,0,0-.01279.878c1.04364,1.47673,6.61615,2.3631,9.09275,1.73974,2.88173-.72607,4.77437-1.75658,5.47249-2.97973a.2137.2137,0,0,0-.00943-.23472c-.48326-.89749-3.80919-1.88928-4.67671-1.94518l-.32262-.02088V62.86868Z" transform="translate(-37.5796 -3.16238)"/><path class="cls-2" d="M70.06834,86.64152a.34492.34492,0,0,1-.00943-.68971c1.12986-.03233,2.28532-.08419,3.43437-.1539a.34481.34481,0,1,1,.04176.68836c-1.15613.07038-2.31932.12258-3.45659.15525Zm6.19823-.355a.3448.3448,0,0,1-.029-.68835c1.13558-.097,2.28632-.2125,3.4209-.34317a.34475.34475,0,0,1,.0788.685c-1.141.13167-2.29878.24752-3.4411.34518Zm6.16489-.69172a.34482.34482,0,0,1-.04715-.68634c1.12717-.15659,2.26915-.33205,3.39429-.52131a.34492.34492,0,1,1,.1145.68027c-1.13188.19027-2.28026.36674-3.41382.524A.32915.32915,0,0,1,82.43146,85.59484Zm6.12043-1.01165a.34487.34487,0,0,1-.06432-.68364c1.11841-.21385,2.252-.44791,3.36937-.69509a.34489.34489,0,1,1,.14885.67353c-1.1238.24854-2.26376.4836-3.3889.69913A.35572.35572,0,0,1,88.55189,84.58319Zm6.06689-1.3235a.34492.34492,0,0,1-.08184-.67994c1.11774-.27379,2.23817-.56577,3.33-.86684a.34478.34478,0,1,1,.18321.66478c-1.09787.30309-2.2247.59642-3.34883.87223A.34759.34759,0,0,1,94.61878,83.25969Zm5.99179-1.63535a.3449.3449,0,0,1-.09935-.67522c1.09686-.33,2.19977-.68061,3.27844-1.042a.34484.34484,0,1,1,.2189.654c-1.08507.36337-2.19505.7163-3.29865,1.0487A.35135.35135,0,0,1,100.61057,81.62434Zm5.8948-1.95461a.34481.34481,0,0,1-.11787-.66882c1.08574-.39469,2.16677-.80757,3.21277-1.22786a.34483.34483,0,1,1,.25729.63986c-1.05341.423-2.14151.83889-3.23432,1.23594A.34539.34539,0,0,1,106.50537,79.66973Zm5.77019-2.29642a.34488.34488,0,0,1-.13807-.66108c1.06082-.46137,2.11221-.94329,3.12521-1.4316a.34477.34477,0,1,1,.29972.621c-1.02108.49235-2.08055.978-3.14946,1.443A.34331.34331,0,0,1,112.27556,77.37331Zm5.60282-2.679a.34479.34479,0,0,1-.16064-.65c1.03186-.54254,2.04149-1.10393,3.00061-1.669a.34481.34481,0,1,1,.35024.59406c-.96888.57082-1.98828,1.13794-3.03024,1.68519A.34293.34293,0,0,1,117.87838,74.69431Zm5.362-3.13026a.34486.34486,0,0,1-.18859-.6338c.98909-.64491,1.93406-1.30532,2.80831-1.963a.34485.34485,0,0,1,.4149.551c-.887.66714-1.84481,1.33663-2.8467,1.99A.3436.3436,0,0,1,123.24041,71.56405Zm4.97812-3.7048a.34484.34484,0,0,1-.2253-.60584,32.08941,32.08941,0,0,0,2.46649-2.35536.345.345,0,0,1,.50381.47147,32.76883,32.76883,0,0,1-2.51971,2.40588A.34421.34421,0,0,1,128.21853,67.85925Zm4.2618-4.49384a.34484.34484,0,0,1-.27716-.5496,16.3886,16.3886,0,0,0,1.73-2.88678.3448.3448,0,0,1,.62707.28692,17.07459,17.07459,0,0,1-1.802,3.00937A.3447.3447,0,0,1,132.48033,63.36541Zm2.62141-5.55365a.34495.34495,0,0,1-.33879-.41086,9.13083,9.13083,0,0,0,.17175-1.74008,8.44557,8.44557,0,0,0-.14279-1.54712.345.345,0,0,1,.67826-.12662,9.14148,9.14148,0,0,1,.15424,1.67374,9.8,9.8,0,0,1-.18455,1.8721A.34483.34483,0,0,1,135.10174,57.81176Zm-.881-6.01a.34513.34513,0,0,1-.30612-.18523c-.11181-.21418-.23506-.43005-.36573-.6412a22.18294,22.18294,0,0,0-1.51849-2.16037.34481.34481,0,0,1,.53883-.43039,22.898,22.898,0,0,1,1.56631,2.22772c.13942.2253.27076.456.39065.685a.34478.34478,0,0,1-.30545.50448Zm-3.78157-4.88854a.34393.34393,0,0,1-.23742-.0948,18.844,18.844,0,0,0-2.6497-2.09857.34481.34481,0,1,1,.37786-.57689,19.52877,19.52877,0,0,1,2.74668,2.17536.34485.34485,0,0,1-.23742.5949Zm-5.10474-3.47949a.34228.34228,0,0,1-.1465-.03283,21.83856,21.83856,0,0,0-3.17236-1.19385.34487.34487,0,1,1,.19331-.66209,22.53161,22.53161,0,0,1,3.27272,1.2319.34487.34487,0,0,1-.14717.65687Zm-33.60547-.681-.47013-.00134a.34486.34486,0,0,1,.00168-.68971h.00169l.46676.00135c1.0945,0,2.091-.02206,2.96188-.06567a.34477.34477,0,1,1,.03435.68869C93.84286,42.73042,92.83492,42.75281,91.729,42.75281Zm-3.22928-.05371-.01111-.00017c-1.0881-.03368-2.2513-.08385-3.45659-.14919a.34484.34484,0,0,1,.037-.68869c1.20024.065,2.35805.115,3.4411.14852a.34485.34485,0,0,1-.01044.68953Zm8.95805-.23523a.34488.34488,0,0,1-.0357-.68785c1.08507-.11349,2.23615-.25578,3.41854-.40362a.34482.34482,0,1,1,.08554.68431c-1.18576.14835-2.34054.29114-3.432.4053C97.48165,42.46319,97.46953,42.46387,97.45774,42.46387Zm-15.16368-.08352-.02391-.00084c-1.12313-.07746-2.28262-.1667-3.44683-.26538a.3449.3449,0,0,1,.05826-.68734c1.1605.0985,2.31663.18741,3.43571.2647a.34483.34483,0,0,1-.02323.68886Zm-6.19149-.51475-.03334-.00152c-1.13492-.10962-2.29172-.22967-3.43841-.35681a.34494.34494,0,1,1,.07611-.68566c1.14366.127,2.2971.24669,3.4283.3558a.34489.34489,0,0,1-.03266.68819Zm27.519-.14431a.34488.34488,0,0,1-.04042-.68734c1.31576-.15677,2.40857-.2738,3.43875-.36826a.34479.34479,0,1,1,.06331.68667c-1.02411.094-2.1112.21048-3.42056.36657A.377.377,0,0,1,103.62162,41.72129Zm15.80623-.12949a.34067.34067,0,0,1-.062-.00555,32.37961,32.37961,0,0,0-3.38486-.42181.34485.34485,0,0,1,.05051-.68785,33.05216,33.05216,0,0,1,3.45761.43107.34483.34483,0,0,1-.0613.68414ZM69.92623,41.189a.36587.36587,0,0,1-.04243-.00253c-1.15984-.14245-2.31293-.29265-3.4273-.44672a.34489.34489,0,0,1,.0943-.6833c1.111.15373,2.26072.30342,3.41719.44537a.34489.34489,0,0,1-.04176.68718Zm39.87576-.04109a.34487.34487,0,0,1-.01885-.68919c1.08944-.06079,2.14252-.09161,3.13026-.09161l.33913.00118a.34486.34486,0,0,1-.0027.68971h-.00269l-.33374-.00118c-.97494,0-2.01522.03047-3.09187.09059Zm-46.03088-.80168a.34276.34276,0,0,1-.0522-.00387c-1.17162-.17849-2.32034-.36472-3.41383-.55348a.34482.34482,0,0,1,.1172-.6796c1.08911.18809,2.23311.37348,3.40035.55113a.34488.34488,0,0,1-.05152.68582ZM57.647,39.29807a.3495.3495,0,0,1-.06567-.00623c-1.20058-.23186-2.34122-.4708-3.39025-.71007a.34492.34492,0,0,1,.15357-.67253c1.04128.23759,2.17417.475,3.36735.70536a.34488.34488,0,0,1-.065.68347Zm-6.05914-1.37216a.35034.35034,0,0,1-.09059-.012c-1.279-.34653-2.39712-.6998-3.32324-1.04987a.34489.34489,0,0,1,.24382-.64525c.90557.34232,2.00243.68852,3.25992,1.02933a.3449.3449,0,0,1-.08991.67775Z" transform="translate(-37.5796 -3.16238)"/><path class="cls-3" d="M97.15227,47.36468s-5.3038,2.61137-7.89714-1.649a3.41226,3.41226,0,0,1-4.19223,2.66887c-.109-.0161-.2188-.03326-.33338-.05619-.05033.41151.258,3.10456.258,3.10456-.685-.81492-2.84877-1.22833-3.51353.36431a3.45335,3.45335,0,0,0-.14778,1.79578c.48689,3.58655,4.62312,3.71753,4.62312,3.71753,0,.89893,2.51623,6.0248,7.78079,6.0248,4.26907,0,6.58151-9.41206,6.63665-13.81865A4.632,4.632,0,0,1,97.15227,47.36468Z" transform="translate(-37.5796 -3.16238)"/><path class="cls-4" d="M93.73005,63.68029a8.79276,8.79276,0,0,1-8.0838-6.05038c-.99616-.11585-4.22072-.74089-4.66189-3.99038a3.80991,3.80991,0,0,1,.17142-1.97514,2.04867,2.04867,0,0,1,1.64107-1.26693,3.05774,3.05774,0,0,1,1.762.28962,21.202,21.202,0,0,1-.17142-2.40082l.04513-.3691.36472.07308c.10844.02155.21284.038.31622.05321a3.05817,3.05817,0,0,0,3.80145-2.385l.15592-.90742.47889.78535c2.39577,3.93733,7.2449,1.61935,7.45033,1.51865l.31353-.15373.1502.315a4.32566,4.32566,0,0,0,2.97468,1.963l.27649.05893-.00337.28289C100.66108,53.5513,98.51014,63.68029,93.73005,63.68029ZM83.204,51.05686a1.99315,1.99315,0,0,0-.3031.02256,1.36857,1.36857,0,0,0-1.10864.85068,3.149,3.149,0,0,0-.12427,1.61649c.44117,3.25015,4.13552,3.41416,4.29279,3.41955l.33307.01111.00034.3334c0,.65838,2.38331,5.67994,7.43585,5.67994,3.726,0,6.13895-8.397,6.28578-13.20234a5.095,5.095,0,0,1-3.0134-1.98323c-1.13525.45969-5.19836,1.80407-7.63286-1.31626a3.699,3.699,0,0,1-4.29178,2.24641c.03435.61258.15457,1.80508.25224,2.65845l.13033,1.138-.73685-.87661A2.13355,2.13355,0,0,0,83.204,51.05686Z" transform="translate(-37.5796 -3.16238)"/><path class="cls-6" d="M104.63636,35.81549c-1.907-2.191-5.96448-1.37954-5.96448-1.37954,0-1.70413-1.98815-3.12424-4.05745-3.12424a5.021,5.021,0,0,0-4.17919,2.83054s-4.50379-3.0528-8.60184,0a6.70483,6.70483,0,0,0-2.35332,8.16519,4.87845,4.87845,0,0,0-2.0515,5.853c1.15886,4.16892,4.04506,3.6368,4.04506,3.6368H81.474c.66476-1.59264,2.82852-1.17923,3.51353-.36431,0,0-.30835-2.693-.258-3.10456l.0025-.02016a.49946.49946,0,0,1,.04831-.11208l.28257.18843a3.41226,3.41226,0,0,0,4.19223-2.66887c2.59334,4.26034,7.89714,1.649,7.89714,1.649a4.632,4.632,0,0,0,3.21452,2.152,4.20178,4.20178,0,0,0,4.229-1.20849,4.85081,4.85081,0,0,0,.3246-5.311C105.6913,41.78,106.54337,38.00653,104.63636,35.81549Z" transform="translate(-37.5796 -3.16238)"/><path class="cls-2" d="M85.46036,52.53157l-.73685-.87661a2.17151,2.17151,0,0,0-1.8226-.57554,1.36857,1.36857,0,0,0-1.10864.85068l-.0724.17377-.18523.033c-.13033.02358-3.21344.52132-4.43861-3.88429a5.28155,5.28155,0,0,1,1.92059-6.05644,6.70115,6.70115,0,0,1-.39974-3.12791,7.20611,7.20611,0,0,1,3.01038-5.2024c3.58254-2.66856,7.49377-.863,8.65731-.21453a5.41125,5.41125,0,0,1,4.32983-2.68438c2.17418,0,4.10083,1.39355,4.37025,3.06931,1.09046-.14936,4.22948-.37987,5.91164,1.553v-.00017c1.991,2.28733,1.1541,6.04786.41759,7.41716a5.14493,5.14493,0,0,1-.45127,5.52048,4.53113,4.53113,0,0,1-4.56726,1.32754A5.20628,5.20628,0,0,1,97.00243,47.805c-1.13525.45969-5.19836,1.80407-7.63286-1.31626a3.69918,3.69918,0,0,1-4.29212,2.24641c.035.61393.15491,1.80576.25258,2.65845Zm.44386-19.411a6.34,6.34,0,0,0-3.86476,1.29824,6.54112,6.54112,0,0,0-2.72715,4.626,5.46347,5.46347,0,0,0,.42231,3.03008l.28591.329-.38021.209c-.12023.06381-2.94639,1.61733-1.87951,5.45514.90995,3.27306,2.88746,3.433,3.48455,3.40642a2.04523,2.04523,0,0,1,1.55149-1.077,3.05774,3.05774,0,0,1,1.762.28962,21.202,21.202,0,0,1-.17142-2.40082l.005-.03806a.72275.72275,0,0,1,.08318-.21351l.17849-.33744.53479.357a3.05535,3.05535,0,0,0,3.726-2.39578l.15592-.90742.47889.78535c2.39577,3.93733,7.2449,1.61935,7.45033,1.51865l.31353-.15373.1502.315a4.32566,4.32566,0,0,0,2.97468,1.963,3.85976,3.85976,0,0,0,3.89069-1.08978,4.46161,4.46161,0,0,0,.29433-4.91733l-.10642-.18135.11215-.17832c.654-1.033,1.56732-4.6794-.25292-6.77057v-.00016c-1.75153-2.012-5.59844-1.27552-5.63717-1.2676l-.41186.08183-.00034-.42012c0-1.45467-1.76938-2.77935-3.71254-2.77935a4.65132,4.65132,0,0,0-3.85533,2.60356l-.15087.41507-.3664-.24736A8.472,8.472,0,0,0,85.90422,33.12056Z" transform="translate(-37.5796 -3.16238)"/><path class="cls-3" d="M117.13931,32.76345c2.64659.86517-2.01611,10.10045-4.70723,12.53655s-.65155-10.63416-.04727-11.65468S113.22657,31.48437,117.13931,32.76345Z" transform="translate(-37.5796 -3.16238)"/><path class="cls-4" d="M111.84214,45.94723a.74448.74448,0,0,1-.47417-.17326c-1.57776-1.28865.22193-11.4631.72-12.30435.04647-.07881.09093-.15812.13471-.23692.67522-1.20748,1.42924-1.97161,5.02358-.79713h0a1.43978,1.43978,0,0,1,.96147,1.16943c.58194,2.73288-3.1865,9.81647-5.54422,11.95057A1.2512,1.2512,0,0,1,111.84214,45.94723Zm2.5847-13.40592a1.56924,1.56924,0,0,0-1.602,1.02765c-.04681.084-.094.16839-.14346.25208-.50785.85791-1.9509,10.5417-.87729,11.41864.09093.07325.3462-.14969.39672-.19532,2.1442-1.941,5.852-8.85517,5.33239-11.29573-.10136-.47552-.33475-.603-.50111-.65737h0A8.921,8.921,0,0,0,114.42684,32.54131Z" transform="translate(-37.5796 -3.16238)"/><circle class="cls-3" cx="73.5373" cy="45.06595" r="1.17385"/><path class="cls-4" d="M111.11539,49.74716a1.51881,1.51881,0,1,1,1.44508-1.047v.00034A1.52216,1.52216,0,0,1,111.11539,49.74716Zm.00236-2.348a.82914.82914,0,1,0,.78737,1.08675h0a.82922.82922,0,0,0-.78737-1.08675Z" transform="translate(-37.5796 -3.16238)"/><path class="cls-3" d="M142.31023,68.244h-42.035a2.88833,2.88833,0,0,0-2.924,3.26671l3.0932,20.37975a2.9243,2.9243,0,0,0,2.924,2.43943h35.88408a2.92409,2.92409,0,0,0,2.92474-2.44408L145.235,71.506A2.88851,2.88851,0,0,0,142.31023,68.244Z" transform="translate(-37.5796 -3.16238)"/><path class="cls-1" d="M139.19008,70.00431H97.1551A2.88834,2.88834,0,0,0,94.23105,73.271l3.09319,20.37974a2.92432,2.92432,0,0,0,2.924,2.43944h35.88408a2.92409,2.92409,0,0,0,2.92474-2.44408l3.05772-20.37975A2.88851,2.88851,0,0,0,139.19008,70.00431Z" transform="translate(-37.5796 -3.16238)"/><path class="cls-2" d="M139.25241,94.6748h-35.884a3.287,3.287,0,0,1-3.26464-2.73255L97.01051,71.5627a3.13289,3.13289,0,0,1,.7291-2.51263,3.33444,3.33444,0,0,1,2.53554-1.15108h42.03512a3.33486,3.33486,0,0,1,2.53385,1.14939,3.13246,3.13246,0,0,1,.73214,2.50893L142.5184,91.93687A3.28689,3.28689,0,0,1,139.25241,94.6748ZM100.27515,68.5887A2.64454,2.64454,0,0,0,98.26262,69.5a2.41072,2.41072,0,0,0-.57049,1.959l3.09322,20.37956a2.5939,2.5939,0,0,0,2.583,2.14656h35.884a2.59252,2.59252,0,0,0,2.58369-2.1506L144.894,71.45493a2.41047,2.41047,0,0,0-.5725-1.95662,2.6452,2.6452,0,0,0-2.01119-.90961Z" transform="translate(-37.5796 -3.16238)"/></svg>