<svg id="Layer_1" data-name="Layer 1" xmlns="http://www.w3.org/2000/svg" viewBox="0 0 149.6128 90.28539"><defs><style>.cls-1{fill:#1f1f1f;}.cls-2{fill:#f4f3f4;}.cls-3{fill:#34ad6d;}.cls-4{fill:#fff;}.cls-5{fill:#0b8873;}.cls-6{fill:#010101;}</style></defs><polygon class="cls-1" points="145.048 23.926 125.992 33.602 123.294 29.561 145.048 23.926"/><path class="cls-2" d="M154.74639,38.44051l-3.1127-4.6619,25.09664-6.50147Zm-2.06306-4.26162,2.28353,3.42006,16.1277-8.18981Z" transform="translate(-28.86418 -4.41734)"/><polygon class="cls-1" points="147.071 22.659 119.731 17.759 123.391 24.587 147.071 22.659"/><path class="cls-2" d="M152.0686,29.34608l-4.07783-7.608,30.46429,5.45961Zm-2.86934-6.73052,3.24167,6.04749,20.9737-1.70772Z" transform="translate(-28.86418 -4.41734)"/><polygon class="cls-1" points="146.891 23.295 118.447 32.598 123.211 25.223 146.891 23.295"/><path class="cls-2" d="M146.54021,37.6096l5.34858-8.28052L178.477,27.16421Zm5.72091-7.65817-4.17822,6.46906,24.95019-8.16026Z" transform="translate(-28.86418 -4.41734)"/><path class="cls-3" d="M44.33458,84.74347S32.18033,76.844,32.60764,56.18371c.48013-23.2147,17.622-34.33248,33.26908-35.85161,0,0,2.31119-14.127,24.18811-14.131C106.74148,6.198,109.324,16.07852,109.324,16.07852s4.79755-2.46073,11.44528,3.3421c5.569,4.86123,4.29658,9.09458,4.29658,9.09458s20.109,1.99451,22.38845,20.79791c3.19019,26.31554-11.63954,36.64567-11.63954,36.64567Z" transform="translate(-28.86418 -4.41734)"/><path class="cls-4" d="M47.303,87.74474l-.06322-.02541a24.172,24.172,0,0,1-8.49717-6.68541c-3.84973-4.53276-8.4311-12.77642-8.39393-26.30957.06163-22.63425,16.7402-34.44268,33.32251-36.1504a15.65706,15.65706,0,0,1,3.92471-6.98673c3.066-3.26964,9.11762-7.16766,20.53529-7.16988h.00762c8.71384,0,13.56111,2.73052,16.09371,5.02168a12.25036,12.25036,0,0,1,3.35795,4.74386c1.24565-.46144,5.66023-1.52744,11.459,3.53427,4.78024,4.1725,4.65984,7.89436,4.47367,9.06154a31.95727,31.95727,0,0,1,10.10213,3.33921,22.53358,22.53358,0,0,1,12.21825,17.69771c1.65832,13.68119-1.62052,22.99006-4.663,28.3901a26.99643,26.99643,0,0,1-7.11365,8.56167l-.07879.055-.09594.00318ZM88.13885,5.068h-.00762C76.97215,5.07,71.0781,8.84,68.09852,12.00227a14.84172,14.84172,0,0,0-3.8348,6.92431l-.04067.24637-.24875.02446C47.60484,20.7868,31.06,32.38889,30.99934,54.72626c-.03653,13.313,4.44667,21.40924,8.21412,25.85718a24.37454,24.37454,0,0,0,8.20744,6.50623l86.34925-2.911a27.47107,27.47107,0,0,0,6.86267-8.32658c2.98467-5.31109,6.19935-14.473,4.56453-27.95837a21.575,21.575,0,0,0-11.86021-17.19211A30.75836,30.75836,0,0,0,123.1,27.38055l-.393-.03923.11341-.37821c.01175-.03939,1.12525-4.10849-4.19855-8.75577-6.38329-5.5716-11.03772-3.32031-11.08379-3.29728l-.35835.18109-.10388-.38822C107.05013,14.60667,104.3339,5.068,88.13885,5.068Z" transform="translate(-28.86418 -4.41734)"/><path class="cls-4" d="M30.28232,37.59959a.32415.32415,0,0,1-.23318-.09848c-.72464-.74514-1.09729-1.20563-1.11286-1.22485a.32533.32533,0,0,1,.5064-.40854c.00349.00445.37169.45874,1.07283,1.17973a.32532.32532,0,0,1-.23319.55214Z" transform="translate(-28.86418 -4.41734)"/><path class="cls-4" d="M39.29415,44.38777a.324.324,0,0,1-.156-.04c-.91939-.50353-1.834-1.053-2.71782-1.63307a.32531.32531,0,0,1,.35708-.54388c.86951.57056,1.76889,1.11111,2.67334,1.60638a.32531.32531,0,0,1-.15662.6106Zm-4.75387-3.06616a.3233.3233,0,0,1-.19506-.06512c-.85172-.63967-1.67866-1.31412-2.45731-2.00461a.32519.32519,0,1,1,.43142-.4867c.76595.67874,1.57891,1.34191,2.41665,1.97093a.32532.32532,0,0,1-.1957.5855Z" transform="translate(-28.86418 -4.41734)"/><path class="cls-4" d="M58.0164,48.95754a.32529.32529,0,0,1-.00826-.65047c1.02613-.02652,2.07291-.09657,3.11111-.20808a.32525.32525,0,1,1,.06926.64681c-1.05536.11357-2.11993.18473-3.16385.21158Zm-2.51449-.01922-.014-.00032c-1.05536-.04384-2.119-.13375-3.16067-.26749a.32525.32525,0,1,1,.0826-.64523c1.02359.13121,2.06814.21953,3.10539.26273a.3253.3253,0,0,1-.01334.65031Zm8.14295-.53753a.32533.32533,0,0,1-.05432-.646c1.00834-.17218,2.03606-.3871,3.05456-.63871a.32531.32531,0,0,1,.1563.63157c-1.03407.25558-2.07735.47367-3.10158.64855A.32318.32318,0,0,1,63.64486,48.40079Zm-13.7587-.13406a.32477.32477,0,0,1-.06386-.00636c-1.03185-.20586-2.06846-.46017-3.08125-.75546a.32532.32532,0,0,1,.18236-.62457c.99467.29005,2.01286.53975,3.026.74212a.32527.32527,0,0,1-.06322.64427ZM69.158,47.12258a.32542.32542,0,0,1-.0845-.63951c1.00484-.27194,2.02049-.55929,3.019-.85442a.32529.32529,0,1,1,.18426.62394c-1.00294.29656-2.02367.58534-3.0336.85855A.32706.32706,0,0,1,69.158,47.12258ZM44.44259,46.7315a.32309.32309,0,0,1-.11215-.02017c-.98419-.36153-1.96934-.77118-2.92843-1.21769a.32534.32534,0,0,1,.27448-.59c.94289.43905,1.9112.84171,2.87824,1.19705a.32538.32538,0,0,1-.11214.63076ZM74.59045,45.53a.32546.32546,0,0,1-.09816-.63569c.99372-.31419,1.99634-.64443,2.9799-.98165a.32526.32526,0,1,1,.21095.61536c-.98833.339-1.996.67095-2.99452.98673A.32566.32566,0,0,1,74.59045,45.53Zm5.35907-1.82368a.32542.32542,0,0,1-.11151-.63109c.98165-.35835,1.96839-.73274,2.9332-1.1127a.32536.32536,0,0,1,.23827.60552c-.96958.38186-1.96172.75816-2.94846,1.11841A.32634.32634,0,0,1,79.94952,43.70633Zm5.272-2.06131a.32544.32544,0,0,1-.12548-.62569c.96513-.4033,1.93344-.82281,2.87856-1.24708a.32521.32521,0,1,1,.26622.59344c-.94988.42665-1.9236.84854-2.89381,1.25407A.32715.32715,0,0,1,85.22153,41.645Zm5.17068-2.30657a.32536.32536,0,0,1-.1401-.61917c.94575-.44953,1.89246-.91589,2.81375-1.38607a.32522.32522,0,1,1,.29545.57946c-.92638.47288-1.87848.94194-2.82964,1.39433A.32428.32428,0,0,1,90.39221,39.33845Zm5.04931-2.5596a.32526.32526,0,0,1-.15471-.61155c.92511-.49957,1.84608-1.01454,2.73687-1.53078a.32525.32525,0,1,1,.326.56294c-.89619.51958-1.82289,1.03773-2.754,1.54031A.32272.32272,0,0,1,95.44152,36.77885Zm4.90668-2.82472a.32529.32529,0,0,1-.1706-.60249c.89461-.54912,1.78445-1.11572,2.64475-1.68374a.32526.32526,0,0,1,.35835.54292c-.866.572-1.76189,1.14241-2.66254,1.69518A.32251.32251,0,0,1,100.3482,33.95413Zm36.28431-1.99746c-.58582,0-1.18434-.01747-1.77841-.05194a.32538.32538,0,0,1,.03748-.64967,29.29511,29.29511,0,0,0,3.10921.01827.33256.33256,0,0,1,.34056.30943.32556.32556,0,0,1-.30943.34056C137.57032,31.9454,137.09951,31.95667,136.63251,31.95667Zm3.88754-.26955a.32528.32528,0,0,1-.04575-.64729,23.57347,23.57347,0,0,0,3.03455-.63458.32537.32537,0,0,1,.176.62648,24.195,24.195,0,0,1-3.11841.652A.32942.32942,0,0,1,140.52005,31.68712Zm-8.1509-.02558a.31531.31531,0,0,1-.04384-.003c-1.02486-.13882-2.07513-.32912-3.12191-.56548a.32539.32539,0,0,1,.14359-.63474c1.028.23239,2.05957.41919,3.06568.55564a.32528.32528,0,0,1-.04352.6476Zm-27.28709-.81312a.32525.32525,0,0,1-.18712-.59153c.86347-.60631,1.71455-1.22818,2.52974-1.84862a.32532.32532,0,1,1,.39393.51783c-.82154.62537-1.67961,1.25232-2.55007,1.86323A.3239.3239,0,0,1,105.08206,30.84842Zm21.75711-.37566a.32228.32228,0,0,1-.09086-.01319c-1.03089-.29973-2.04241-.63918-3.00659-1.00881a.32521.32521,0,1,1,.23255-.60742c.94766.36312,1.94234.69669,2.95576.99166a.32538.32538,0,0,1-.09086.63776ZM121.543,28.4869a.32431.32431,0,0,1-.13851-.03114,29.76366,29.76366,0,0,1-2.80073-1.50393.32538.32538,0,0,1,.33929-.55531,29.04682,29.04682,0,0,0,2.7391,1.47089.32533.32533,0,0,1-.13915.61949Zm-11.94376-1.05171a.32531.32531,0,0,1-.20586-.57739c.82789-.67541,1.62814-1.35986,2.37852-2.03447a.32539.32539,0,1,1,.43523.48384c-.75832.68143-1.56651,1.37288-2.40267,2.0548A.3238.3238,0,0,1,109.59925,27.43519Zm7.0949-1.85132a.32346.32346,0,0,1-.19665-.06639,20.54081,20.54081,0,0,1-2.32864-2.05655l-.11564.11421a.3254.3254,0,0,1-.4562-.46414c.77548-.762,1.4998-1.52284,2.15328-2.26178a.32533.32533,0,0,1,.48734.4311c-.49877.56406-1.03789,1.14034-1.60909,1.72012a19.90384,19.90384,0,0,0,2.26289,1.99921.32531.32531,0,0,1-.19729.58422Zm-3.94567-4.02525a.32485.32485,0,0,1-.26749-.13963,13.26381,13.26381,0,0,1-1.5141-2.83583.32539.32539,0,0,1,.608-.23191,12.607,12.607,0,0,0,1.4404,2.69637.32534.32534,0,0,1-.26686.511Zm4.84219-2.1131a.32533.32533,0,0,1-.25924-.52132,18.77854,18.77854,0,0,0,1.67675-2.5928.32546.32546,0,0,1,.57756.30021,19.42459,19.42459,0,0,1-1.73521,2.68461A.32483.32483,0,0,1,117.59067,19.44552Zm-6.94623-3.08172a.32505.32505,0,0,1-.32182-.28084,10.91681,10.91681,0,0,1-.10229-1.49074,11.24145,11.24145,0,0,1,.13628-1.73616.32542.32542,0,0,1,.643.1007,10.57475,10.57475,0,0,0-.12866,1.63546,10.32592,10.32592,0,0,0,.09594,1.40179.32513.32513,0,0,1-.27766.36677A.329.329,0,0,1,110.64444,16.3638Zm9.495-1.91661a.32513.32513,0,0,1-.319-.39012,7.82626,7.82626,0,0,0,.1652-1.55285,5.51143,5.51143,0,0,0-.17473-1.4153.32515.32515,0,1,1,.62838-.16742,6.14323,6.14323,0,0,1,.197,1.58256,8.4868,8.4868,0,0,1-.17822,1.68263A.32556.32556,0,0,1,120.13947,14.44719Zm-8.76022-3.62163a.32527.32527,0,0,1-.29-.47208,5.28634,5.28634,0,0,1,2.314-2.34358A.32536.32536,0,0,1,113.7,8.589a4.6386,4.6386,0,0,0-2.03,2.058A.32534.32534,0,0,1,111.37925,10.82556Zm7.47295-1.62227a.32466.32466,0,0,1-.21762-.08339,4.20513,4.20513,0,0,0-2.66539-1.035.32534.32534,0,0,1,.01144-.65046l.01207.00016a4.85834,4.85834,0,0,1,3.07712,1.20149.32531.32531,0,0,1-.21762.56723Z" transform="translate(-28.86418 -4.41734)"/><path class="cls-4" d="M146.00428,30.201a.3254.3254,0,0,1-.12867-.62426,10.45811,10.45811,0,0,0,1.40132-.70653.32535.32535,0,0,1,.35454.54562,10.83382,10.83382,0,0,1-1.49853.75848A.32435.32435,0,0,1,146.00428,30.201Z" transform="translate(-28.86418 -4.41734)"/><path class="cls-5" d="M66.48127,45.43018s3.32621-1.24765,4.00982-2.84274.057-5.07012.74058-6.1525a17.69249,17.69249,0,0,0,1.02542-1.823s-2.4717,1.08238-2.88791-.45574.32436-6.60825.32436-6.60825-1.766,3.8738-4.32953,5.01315-9.00088-.51271-9.62753.28484a1.51074,1.51074,0,0,0,0,1.709s-4.4486,2.001-4.61437,3.01928c-.39878,2.44961,5.8818,7.28518,5.8818,7.28518Z" transform="translate(-28.86418 -4.41734)"/><path class="cls-4" d="M66.48117,45.75541l-.01969-.00063-9.47724-.57057a.32542.32542,0,0,1-.17886-.06687c-.65857-.50719-6.42236-5.0282-6.0046-7.59527.16519-1.01453,3.16352-2.50734,4.49018-3.12127a1.69419,1.69419,0,0,1,.18966-1.7557c.36947-.47,1.45469-.39552,3.67723-.19824,2.10309.18712,4.71893.41935,6.07386-.183,2.4195-1.07521,4.14868-4.81328,4.16583-4.85093a.32535.32535,0,0,1,.6179.182c-.00731.05-.72591,5.02073-.3323,6.47621a.688.688,0,0,0,.37741.47859,3.14159,3.14159,0,0,0,2.06624-.236.32553.32553,0,0,1,.4257.43444,17.84766,17.84766,0,0,1-1.04583,1.86053,6.95365,6.95365,0,0,0-.31991,2.72179A9.83356,9.83356,0,0,1,70.79,42.71562c-.73,1.70312-4.05337,2.96609-4.19442,3.01914A.32793.32793,0,0,1,66.48117,45.75541ZM57.1237,44.54089l9.307.56024c.93622-.36184,3.25788-1.46755,3.76142-2.64188a9.51076,9.51076,0,0,0,.344-3.13637,6.75467,6.75467,0,0,1,.4203-3.06155c.26686-.42252.4813-.79326.64268-1.08585a2.80937,2.80937,0,0,1-1.81907-.0386,1.34692,1.34692,0,0,1-.72465-.89572,18.95525,18.95525,0,0,1,.10071-5.03423,9.39788,9.39788,0,0,1-3.66007,3.6515c-1.509.67048-4.21825.42967-6.39568.23652a10.0237,10.0237,0,0,0-3.11333-.04226,1.17688,1.17688,0,0,0,.01842,1.31936.32673.32673,0,0,1-.13565.47971c-2.06274.928-4.34183,2.25271-4.42665,2.77483C51.1461,39.45012,55.36816,43.175,57.1237,44.54089Z" transform="translate(-28.86418 -4.41734)"/><path class="cls-1" d="M56.70493,61.1843S46.27986,62.47556,44.83668,74.5527s.68361,19.82472.68361,19.82472H76.66258s.45574-15.6471-.75957-22.3313-9.2622-10.86182-9.2622-10.86182Z" transform="translate(-28.86418 -4.41734)"/><path class="cls-2" d="M76.97882,94.70272H45.27207l-.06544-.23921c-.02161-.07816-2.12692-7.94758-.69288-19.94948C45.97,62.325,56.55822,60.87477,56.665,60.86159l.04-.00254H66.72007l.07053.03653c.33421.17362,8.20268,4.329,9.43245,11.09252,1.20753,6.64093.76943,22.24191.765,22.39884ZM45.774,94.0521H76.34567c.05528-2.25081.33771-15.89579-.76245-21.94773-1.11381-6.125-8.24715-10.17075-9.02453-10.5947H56.726c-.63252.08419-10.18854,1.55079-11.566,13.08156A58.28764,58.28764,0,0,0,45.774,94.0521Z" transform="translate(-28.86418 -4.41734)"/><path class="cls-1" d="M85.31838,61.34877S74.89331,62.64,73.45013,74.71717s.64138,19.66025.64138,19.66025h31.06a60.04882,60.04882,0,0,0-.63507-22.16683c-2.29442-9.39965-9.58449-10.597-9.58449-10.597Z" transform="translate(-28.86418 -4.41734)"/><path class="cls-2" d="M105.42262,94.70272H73.84325l-.06544-.23921c-.02129-.07625-2.08466-7.78334-.65062-19.78492C74.58346,62.48942,85.17166,61.03918,85.2784,61.026l.02446-.003,9.68183.26956c.075.01239,7.52918,1.34207,9.848,10.84075,2.67143,10.94559.65952,22.19076.63887,22.3029Zm-31.0771-.65062h30.531c.28338-1.75776,1.73457-11.88912-.676-21.76442-2.15582-8.83122-8.89079-10.27035-9.30251-10.34961l-9.563-.26336c-.67032.09006-10.187,1.57573-11.56159,13.08076C72.49562,85.4485,74.01735,92.674,74.34552,94.0521Z" transform="translate(-28.86418 -4.41734)"/><path class="cls-1" d="M59.33658,53.75916l.55854,5.51979s-3.19093,1.42419-3.19019,2.62051c.00057.91326,2.44,2.77306,5.12709,2.79141,2.50657.01712,5.12708-1.9369,5.12708-2.73444,0-.91149-3.475-2.94861-3.475-2.94861l-.44972-4.387Z" transform="translate(-28.86418 -4.41734)"/><path class="cls-2" d="M61.86423,65.0163l-.03431-.00016c-2.80931-.01906-5.44929-1.95806-5.45024-3.11651-.001-1.21388,2.3134-2.41664,3.16861-2.81931l-.58105-5.74124,4.36693,1.01755.45683,4.45476c.98261.58566,3.49329,2.17743,3.49329,3.14511a1.64076,1.64076,0,0,1-.5998,1.05281A7.52418,7.52418,0,0,1,61.86423,65.0163Zm-2.158-10.83694L60.24244,59.48l-.21444.09594c-1.245.55627-2.99833,1.64466-2.9977,2.32324.00032.5963,2.1625,2.44842,4.80407,2.46637l.02954.00016a6.91521,6.91521,0,0,0,4.36216-1.818c.32245-.32023.40759-.52672.40759-.59121,0-.39282-1.51759-1.61465-3.31411-2.66794l-.14232-.08339-.44286-4.32023Z" transform="translate(-28.86418 -4.41734)"/><path class="cls-1" d="M57.04674,45.54976s-1.766-1.65206-2.67748-.17091a4.09093,4.09093,0,0,0,1.138,5.05114c1.36859.902,2.10917.24685,2.10917.24685s1.42419,4.2784,3.93077,4.2784c3.13322,0,3.81683-3.76569,3.81683-3.76569s1.3338.1557,2.18376-2.67748c.68361-2.2787-.30383-3.24715-1.21531-2.50657a34.81515,34.81515,0,0,0,.96845-4.50044c-.17091-.17091-6.77915-2.50658-6.77915-2.50658l-1.42419,3.19019s-1.31025-1.25329-1.823-.74058S57.04674,45.54976,57.04674,45.54976Z" transform="translate(-28.86418 -4.41734)"/><path class="cls-2" d="M61.54718,55.28062c-2.28735,0-3.68994-3.07537-4.10865-4.14534a2.33851,2.33851,0,0,1-2.11008-.43364,4.41567,4.41567,0,0,1-1.23612-5.49329,1.48766,1.48766,0,0,1,1.08776-.75816,2.3833,2.3833,0,0,1,1.49472.4176c-.07148-1.2825-.09181-3.1883.36979-3.64974.534-.53483,1.42609.02827,1.935.4365L60.347,38.59173l.28306.10007c6.67779,2.36025,6.83981,2.52227,6.9008,2.58327.14169.14153.28783.28735-.71511,4.16631a.96667.96667,0,0,1,.66238.16011c.51624.34564.88761,1.31634.38122,3.00421-.68525,2.284-1.72282,2.7823-2.23207,2.88491C65.4004,52.36251,64.42479,55.28062,61.54718,55.28062ZM57.77051,50.132l.1544.4419c.01366.04066,1.38,4.05607,3.62227,4.05607,2.82074,0,3.47041-3.35605,3.49678-3.49885l.055-.29958.30275.035h0c.00191.00127,1.09253.02541,1.83433-2.44778.37709-1.25661.202-2.061-.11977-2.27655-.20777-.13946-.45207.01271-.57851.11564l-.77325.62839.25352-.96355c.45365-1.72488.90985-3.6534.96894-4.212-.73259-.31594-4.03971-1.50774-6.29052-2.3053l-1.49,3.33715-.33357-.31848c-.54643-.52133-1.2231-.88985-1.36828-.74593-.24081.26987-.26368,2.20665-.13343,3.84592l.06608.83313-.61218-.56945a2.41731,2.41731,0,0,0-1.55953-.69256.85916.85916,0,0,0-.61917.45413,3.76053,3.76053,0,0,0,1.04011,4.60916c1.12048.73847,1.69517.29005,1.71932.27067Zm9.22214-8.54483Z" transform="translate(-28.86418 -4.41734)"/><path class="cls-1" d="M88.17,53.75916l.20888,5.51979s-3.19093,1.42419-3.19019,2.62051c.00057.91326,2.24061,2.76643,4.9277,2.78478,2.50657.01712,4.9277-1.93027,4.9277-2.72781,0-.91149-3.0794-2.73136-3.0794-2.73136l.0791-5.46591Z" transform="translate(-28.86418 -4.41734)"/><path class="cls-2" d="M90.14822,65.00979l-.034-.00016c-2.79565-.01922-5.24978-1.95187-5.25073-3.11-.001-1.22055,2.33881-2.42967,3.18227-2.82583l-.2138-5.63989h4.542l-.08133,5.60828c.89905.54373,3.0768,1.96013,3.0768,2.91431a1.89519,1.89519,0,0,1-.65348,1.14224A7.039,7.039,0,0,1,90.14822,65.00979ZM88.508,54.08453l.20428,5.40163-.20046.08975c-1.245.55627-2.99833,1.64466-2.9977,2.32324.00064.68462,2.04273,2.44222,4.60456,2.45985l.03018.00016a6.33219,6.33219,0,0,0,4.10864-1.722c.365-.36248.46129-.60376.46129-.68064,0-.4338-1.50965-1.61782-2.91955-2.45144l-.16234-.0961.07688-5.32443Z" transform="translate(-28.86418 -4.41734)"/><path class="cls-5" d="M86.574,36.072a5.72889,5.72889,0,0,1-.15535-5.50663c1.77937-3.02111,7.36675-2.54443,8.41835.3894.78529,2.19083-.62031,5.02454-.62031,5.02454Z" transform="translate(-28.86418 -4.41734)"/><path class="cls-4" d="M86.57393,36.3973a.32554.32554,0,0,1-.20809-.07513,5.91839,5.91839,0,0,1-.22746-5.92185,5.132,5.132,0,0,1,4.99118-2.18171,4.49265,4.49265,0,0,1,4.01366,2.62632c.82249,2.29481-.575,5.15812-.63506,5.27884a.32515.32515,0,0,1-.28751.18077l-7.64291.09276ZM90.51229,28.84a4.33249,4.33249,0,0,0-3.81351,1.8904,5.66232,5.66232,0,0,0,.02319,5.01453l7.28456-.08847c.27893-.6384,1.14463-2.86125.52419-4.592a3.86173,3.86173,0,0,0-3.46248-2.19808C90.88113,28.84874,90.69528,28.84,90.51229,28.84Z" transform="translate(-28.86418 -4.41734)"/><path class="cls-1" d="M116.07125,61.49527s-10.37558,1.6422-11.41054,13.76114.49083,19.121.49083,19.121H137.089s1.59168-11.76636-1.4642-22.67412c-2.6102-9.31691-9.9365-10.26762-9.9365-10.26762Z" transform="translate(-28.86418 -4.41734)"/><path class="cls-2" d="M137.37336,94.70272H104.88954l-.05592-.25605c-.01524-.07053-1.52426-7.18926-.49686-19.21784,1.04424-12.23127,11.57715-14.03812,11.68358-14.055l.04892-.004,9.63894-.05972.02192.00286c.0753.00985,7.57017,1.08728,10.20793,10.50273,3.03867,10.84679,1.48931,22.687,1.47343,22.80517Zm-31.95392-.65062h31.38144c.21222-1.85084,1.253-12.47207-1.48931-22.261-2.45223-8.7537-9.232-9.96457-9.64625-10.03l-9.56651.05925c-.66715.11278-10.12818,1.91867-11.114,13.46373C104.07435,85.946,105.16592,92.688,105.41944,94.0521Z" transform="translate(-28.86418 -4.41734)"/><path class="cls-5" d="M116.09847,51.64944s-4.94319-1.89135-5.14169-8.66648c-.19411-6.62514,6.88653-8.43094,8.08826-7.52521a6.31571,6.31571,0,0,1,8.07552,1.41119c4.011,4.41231.37745,13.12683-1.14492,13.54106S116.09847,51.64944,116.09847,51.64944Z" transform="translate(-28.86418 -4.41734)"/><path class="cls-4" d="M116.09849,51.97477a.32725.32725,0,0,1-.11627-.02144c-.05147-.0197-5.14812-2.04893-5.35081-8.96084a7.63263,7.63263,0,0,1,4.24081-7.1926c1.584-.81868,3.33793-1.10761,4.175-.7167A6.65023,6.65023,0,0,1,127.36145,36.65c2.81407,3.096,1.8429,7.80319,1.29489,9.68342-.57978,1.98856-1.65737,4.13518-2.59519,4.39044-1.53125.41664-9.58843,1.21547-9.93057,1.2493Zm1.98808-16.4106a6.65847,6.65847,0,0,0-2.91541.8136,6.89886,6.89886,0,0,0-3.88912,6.59566c.17917,6.11356,4.25923,8.08513,4.86474,8.34436.8622-.08625,8.34309-.8406,9.74346-1.22166.44-.11977,1.456-1.59352,2.14153-3.94488.51751-1.77492,1.441-6.2111-1.15194-9.06345a5.94788,5.94788,0,0,0-7.6607-1.35526.326.326,0,0,1-.36979-.01493A1.40117,1.40117,0,0,0,118.08657,35.56417Z" transform="translate(-28.86418 -4.41734)"/><path class="cls-1" d="M122.57194,53.543l-.0419,5.54782s3.30973,1.12073,3.42044,2.31192c.08451.90934-2.171,2.9883-4.84475,3.2569-2.49408.25056-5.28522-1.45084-5.35952-2.24492-.08491-.90752,3.18522-3.25952,3.18522-3.25952l.03908-4.40985Z" transform="translate(-28.86418 -4.41734)"/><path class="cls-2" d="M120.60393,65.00947a7.65534,7.65534,0,0,1-4.48638-1.57208,1.64213,1.64213,0,0,1-.69542-.99229c-.0899-.96339,2.2613-2.78214,3.18545-3.45691l.03971-4.478,4.25351-1.4199L122.857,58.8608c.88889.32134,3.3049,1.30315,3.41768,2.51179.10706,1.15336-2.341,3.33-5.13636,3.61083C120.96228,65.00105,120.78342,65.00947,120.60393,65.00947Zm-1.31046-10.02906L119.255,59.323l-.13375.09642c-1.69041,1.2161-3.0876,2.57406-3.05107,2.965.00572.06417.10992.26178.46065.55055a6.90914,6.90914,0,0,0,4.54261,1.401c2.62854-.264,4.60837-2.30942,4.55309-2.90318-.0629-.67556-1.90962-1.59606-3.201-2.03383l-.22238-.07561.04-5.32761Z" transform="translate(-28.86418 -4.41734)"/><path class="cls-1" d="M123.93854,45.71565s1.58522-1.82623,2.64533-.44754a4.09093,4.09093,0,0,1-.60823,5.14189c-1.26772,1.039-2.07222.46416-2.07222.46416s-.973,4.403-3.46608,4.66283c-3.11634.3248-4.18663-3.34974-4.18663-3.34974s-1.31047.29313-2.44955-2.43668c-.91614-2.19557-.03441-3.26116.94893-2.61906l5.053-7.57161Z" transform="translate(-28.86418 -4.41734)"/><path class="cls-2" d="M120.0521,55.88264c-2.56881.00032-3.73187-2.56723-4.0324-3.36876-.51687-.04924-1.60019-.437-2.51862-2.63791-.67858-1.62624-.41013-2.63013.06767-3.0274a1.02925,1.02925,0,0,1,1.07219-.13946l5.16114-7.73394,4.1868,6.23175a2.64261,2.64261,0,0,1,1.69232-.77833,1.48806,1.48806,0,0,1,1.16051.64125,4.41609,4.41609,0,0,1-.65983,5.59177,2.33691,2.33691,0,0,1-2.05385.65c-.30562,1.10777-1.38226,4.31181-3.6569,4.549A4.047,4.047,0,0,1,120.0521,55.88264Zm-3.58-4.06163.09086.275c.04066.13946,1.03312,3.40862,3.84083,3.11746,2.22985-.23239,3.17274-4.36788,3.182-4.40965l.10674-.48019.4.28592c.02128.01334.63855.39981,1.67707-.45112a3.761,3.761,0,0,0,.55627-4.69207.85811.85811,0,0,0-.6627-.38742l-.02541-.00032a2.44945,2.44945,0,0,0-1.45374.85076l-.27861.31928-4.10134-6.104-4.962,7.43531-.26972-.176c-.13629-.08927-.39457-.21492-.5874-.05512-.298.2478-.38853,1.066.11659,2.27655.99912,2.39424,2.07513,2.24366,2.08657,2.24287Z" transform="translate(-28.86418 -4.41734)"/><path class="cls-1" d="M109.79368,69.50487H72.4013a2.56932,2.56932,0,0,0-2.6011,2.90592l2.75156,18.12888a2.60134,2.60134,0,0,0,2.6011,2.17h31.92082a2.60112,2.60112,0,0,0,2.60171-2.17413l2.72-18.12888A2.56949,2.56949,0,0,0,109.79368,69.50487Z" transform="translate(-28.86418 -4.41734)"/><path class="cls-2" d="M107.07364,93.03487H75.15276a2.9423,2.9423,0,0,1-2.9224-2.44619L69.47855,72.45987A2.8038,2.8038,0,0,1,70.13172,70.21a2.98386,2.98386,0,0,1,2.26955-1.03058h37.3924a2.98458,2.98458,0,0,1,2.268,1.02867,2.806,2.806,0,0,1,.65571,2.247l-2.72,18.12881A2.94271,2.94271,0,0,1,107.07364,93.03487ZM72.40127,69.83005a2.33437,2.33437,0,0,0-1.77619.80407,2.12689,2.12689,0,0,0-.50353,1.72822l2.7518,18.12849a2.28849,2.28849,0,0,0,2.27941,1.89341h31.92088a2.28794,2.28794,0,0,0,2.28-1.89691l2.72-18.12881a2.1254,2.1254,0,0,0-.50512-1.72567,2.33475,2.33475,0,0,0-1.77492-.8028Z" transform="translate(-28.86418 -4.41734)"/><path class="cls-3" d="M107.01815,71.07079H69.62576a2.56932,2.56932,0,0,0-2.60109,2.90592l2.75156,18.12888a2.60133,2.60133,0,0,0,2.60109,2.17h31.92082a2.60114,2.60114,0,0,0,2.60172-2.17414l2.72-18.12888A2.56947,2.56947,0,0,0,107.01815,71.07079Z" transform="translate(-28.86418 -4.41734)"/><path class="cls-4" d="M107.07364,93.03487H75.15276a2.9423,2.9423,0,0,1-2.9224-2.44619L69.47855,72.45987A2.8038,2.8038,0,0,1,70.13172,70.21a2.98386,2.98386,0,0,1,2.26955-1.03058h37.3924a2.98458,2.98458,0,0,1,2.268,1.02867,2.806,2.806,0,0,1,.65571,2.247l-2.72,18.12881A2.94271,2.94271,0,0,1,107.07364,93.03487ZM72.40127,69.83005a2.33437,2.33437,0,0,0-1.77619.80407,2.12689,2.12689,0,0,0-.50353,1.72822l2.7518,18.12849a2.28849,2.28849,0,0,0,2.27941,1.89341h31.92088a2.28794,2.28794,0,0,0,2.28-1.89691l2.72-18.12881a2.1254,2.1254,0,0,0-.50512-1.72567,2.33475,2.33475,0,0,0-1.77492-.8028Z" transform="translate(-28.86418 -4.41734)"/><line class="cls-6" x1="3.73245" y1="89.96008" x2="118.59015" y2="89.96008"/><path class="cls-4" d="M147.4542,94.70272H32.59667a.32531.32531,0,0,1,0-.65062H147.4542a.32531.32531,0,0,1,0,.65062Z" transform="translate(-28.86418 -4.41734)"/><path class="cls-5" d="M82.22642,47.37272s-1.36029-6.23662,2.05083-10.42507c3.23263-3.96929,11.50292-3.12623,13.55829,1.08238,1.59509,3.26615,1.53813,7.97547-.057,9.34269Z" transform="translate(-28.86418 -4.41734)"/><path class="cls-4" d="M97.77843,47.69807h-15.552a.32514.32514,0,0,1-.31769-.25606c-.05718-.26082-1.354-6.43872,2.11643-10.6997,1.6129-1.98046,4.60106-2.98086,7.798-2.61409,2.92081.33612,5.33651,1.77651,6.30482,3.759,1.67039,3.42021,1.60209,8.24112-.13788,9.7325A.325.325,0,0,1,97.77843,47.69807Zm-15.28138-.65063H97.652c1.40354-1.37733,1.3632-5.86053-.10865-8.87458-.87205-1.78525-3.09236-3.08729-5.79461-3.3983-2.9799-.34183-5.74537.56882-7.21912,2.37852C81.64311,40.6972,82.29532,45.84722,82.49705,47.04744Z" transform="translate(-28.86418 -4.41734)"/><path class="cls-1" d="M85.53054,45.54976s-1.56661-1.22481-2.47809.25635A3.54174,3.54174,0,0,0,84.24877,50.392a2.056,2.056,0,0,0,1.85144.28484s1.42419,4.2784,3.93077,4.2784c3.13322,0,3.74349-4.1796,3.74349-4.1796a3.31872,3.31872,0,0,0,3.67825-2.49144c.74908-3.09062-1.53509-3.64593-2.63646-2.2787a4.35426,4.35426,0,0,1-2.39264-1.36723,11.34251,11.34251,0,0,1-1.709-3.34209,8.47426,8.47426,0,0,1-2.69647,3.64592A3.61015,3.61015,0,0,1,85.53054,45.54976Z" transform="translate(-28.86418 -4.41734)"/><path class="cls-2" d="M90.031,55.28062c-2.33818,0-3.75189-3.21372-4.135-4.2138a2.40355,2.40355,0,0,1-1.833-.40791,3.88309,3.88309,0,0,1-1.28759-5.02327,1.72183,1.72183,0,0,1,1.17068-.86093,2.46575,2.46575,0,0,1,1.70757.46255,3.30613,3.30613,0,0,0,2.17456-.55913,8.17889,8.17889,0,0,0,2.57962-3.48947l.31261-.89334.30244.897A10.5815,10.5815,0,0,0,92.644,44.39905a4.84005,4.84005,0,0,0,2.04622,1.25661,1.90549,1.90549,0,0,1,2.21015-.51259c.92225.45445,1.24692,1.65737.86856,3.21769a3.55921,3.55921,0,0,1-3.72933,2.75483C93.81973,52.1082,92.893,55.28062,90.031,55.28062Zm-3.73251-5.0301.11024.32341c.01366.04066,1.38,4.05607,3.62227,4.05607,2.81248,0,3.41609-3.8626,3.4218-3.90168l.0467-.317.318.04194a2.97559,2.97559,0,0,0,3.31919-2.24557c.30117-1.24343.10547-2.17076-.52386-2.48114a1.30112,1.30112,0,0,0-1.54333.483l-.10261.12756-.16361-.00668A4.6372,4.6372,0,0,1,92.203,44.87748a8.63553,8.63553,0,0,1-1.51378-2.7113,8.38636,8.38636,0,0,1-2.48113,3.04,3.91991,3.91991,0,0,1-2.73179.66428l-.081-.01366-.06449-.05035a1.91923,1.91923,0,0,0-1.27234-.39076,1.08685,1.08685,0,0,0-.72909.56088,3.21871,3.21871,0,0,0,1.10555,4.14868,1.72492,1.72492,0,0,0,1.54491.24938Z" transform="translate(-28.86418 -4.41734)"/><path class="cls-1" d="M40.7878,35.74389a3.72119,3.72119,0,0,1,.02921-1.83163,4.24034,4.24034,0,0,1,.99172-1.83345,4.1817,4.1817,0,0,1,1.93751-1.20088,4.06723,4.06723,0,0,1,2.07421-.13009,3.2449,3.2449,0,0,1,1.63828.87443,3.4409,3.4409,0,0,1,.91492,1.61283,3.20031,3.20031,0,0,1,.07473,1.38791,4.39624,4.39624,0,0,1-.3753,1.16116q-.25657.51922-.9458,1.77225a6.4267,6.4267,0,0,0-.29223.60582,1.99025,1.99025,0,0,0-.16505.82688q.00243.184.02954.63976a.98476.98476,0,0,1-.672,1.19071.87021.87021,0,0,1-.74479-.0933,1.26159,1.26159,0,0,1-.49963-.80275,3.86115,3.86115,0,0,1-.1315-1.33708,3.62577,3.62577,0,0,1,.28157-1.10909q.22235-.50849.63429-1.24087.36111-.64116.51412-.95794a2.76763,2.76763,0,0,0,.22232-.66956,1.5908,1.5908,0,0,0-.02361-.71225,1.63479,1.63479,0,0,0-.75981-1.04492,1.54767,1.54767,0,0,0-1.29579-.123,1.65088,1.65088,0,0,0-1.1101.8665,4.42123,4.42123,0,0,0-.30076,1.64016q-.00311,1.07116-.728,1.29342a.91059.91059,0,0,1-.81021-.1251A1.11785,1.11785,0,0,1,40.7878,35.74389ZM46.99549,44.215a1.121,1.121,0,0,1-.90186-.09711,1.28758,1.28758,0,0,1-.59788-.86269,1.44137,1.44137,0,0,1,.0955-1.0329,1.16971,1.16971,0,0,1,.72635-.63,1.033,1.033,0,0,1,.90631.12871,1.34585,1.34585,0,0,1,.56821.82912,1.41259,1.41259,0,0,1-.09388,1.07039A1.18924,1.18924,0,0,1,46.99549,44.215Z" transform="translate(-28.86418 -4.41734)"/><path class="cls-2" d="M46.65115,44.594A1.46832,1.46832,0,0,1,45.937,44.403a1.60357,1.60357,0,0,1-.7561-1.06616A1.76578,1.76578,0,0,1,45.3,42.07771a1.48765,1.48765,0,0,1,.92224-.79644,1.35,1.35,0,0,1,1.17894.16678,1.66781,1.66781,0,0,1,.7059,1.02089,1.73246,1.73246,0,0,1-.12422,1.30919,1.51,1.51,0,0,1-.89206.74783h0A1.49571,1.49571,0,0,1,46.65115,44.594Zm-.00508-2.728a.79053.79053,0,0,0-.23287.03733.84977.84977,0,0,0-.53054.4635,1.11833,1.11833,0,0,0-.07179.80724.97225.97225,0,0,0,.439.65857.7992.7992,0,0,0,.6503.07132.86915.86915,0,0,0,.51339-.44111,1.09183,1.09183,0,0,0,.06353-.83139,1.022,1.022,0,0,0-.43078-.63775A.72.72,0,0,0,46.64607,41.866Zm-.89715-.67779a1.20065,1.20065,0,0,1-.63728-.18521,1.57221,1.57221,0,0,1-.64332-.998,4.192,4.192,0,0,1-.14042-1.45009,3.9698,3.9698,0,0,1,.30721-1.20784c.15153-.3466.36978-.77389.64871-1.27.237-.42061.407-.73671.50481-.93971a2.44361,2.44361,0,0,0,.196-.59122,1.26268,1.26268,0,0,0-.01938-.56834,1.31059,1.31059,0,0,0-.61091-.84632A1.22783,1.22783,0,0,0,44.32,33.03983a1.3341,1.3341,0,0,0-.90795.68747,4.12288,4.12288,0,0,0-.27289,1.51775c-.00286,1.07458-.52228,1.4612-.95751,1.595a1.24128,1.24128,0,0,1-1.08681-.16583,1.43727,1.43727,0,0,1-.622-.84934,4.05855,4.05855,0,0,1,.02827-1.99A4.58018,4.58018,0,0,1,41.56625,31.862a4.52081,4.52081,0,0,1,2.08434-1.295,4.4029,4.4029,0,0,1,2.23874-.13708,3.57848,3.57848,0,0,1,1.79843.96148,3.77641,3.77641,0,0,1,1.00072,1.76221,3.53374,3.53374,0,0,1,.07973,1.52839,4.74764,4.74764,0,0,1-.40346,1.24645c-.17377.35136-.48542.93511-.95242,1.7846a6.17206,6.17206,0,0,0-.27576.57136,1.66541,1.66541,0,0,0-.14137.7005q.00239.17966.02891.62458a1.29056,1.29056,0,0,1-.901,1.52124A1.2773,1.2773,0,0,1,45.74892,41.18818ZM44.765,32.31725a1.78107,1.78107,0,0,1,.92129.25462,1.95753,1.95753,0,0,1,.90891,1.24343,1.92448,1.92448,0,0,1,.028.85633,3.10232,3.10232,0,0,1-.24875.74847c-.10515.21809-.27639.53752-.52355.97609-.26812.47717-.47684.88476-.6198,1.21166a3.32446,3.32446,0,0,0-.25574,1.01024A3.56033,3.56033,0,0,0,45.098,39.842a.96764.96764,0,0,0,.35581.60742.54878.54878,0,0,0,.47843.05925c.25161-.0772.501-.23858.44349-.84918-.01969-.322-.02954-.54054-.03113-.666a2.31963,2.31963,0,0,1,.18934-.95385,6.62967,6.62967,0,0,1,.30689-.63728c.45747-.83219.77357-1.42435.94067-1.76237a4.09305,4.09305,0,0,0,.34691-1.07585,2.898,2.898,0,0,0-.06957-1.24772,3.13872,3.13872,0,0,0-.82916-1.46326,2.93881,2.93881,0,0,0-1.47788-.78723,3.766,3.766,0,0,0-1.90994.1231A3.87981,3.87981,0,0,0,42.051,32.2958a3.93753,3.93753,0,0,0-.9178,1.69359,3.41768,3.41768,0,0,0-.0305,1.67294l.00032.00048a.79582.79582,0,0,0,.35327.47065.58811.58811,0,0,0,.53435.08451c.21253-.06529.49591-.23843.49781-.98324a4.70184,4.70184,0,0,1,.32913-1.7719,1.96534,1.96534,0,0,1,1.31141-1.045A2.16861,2.16861,0,0,1,44.765,32.31725Z" transform="translate(-28.86418 -4.41734)"/><path class="cls-1" d="M85.21759,11.97017a5.39571,5.39571,0,0,0-1.46654-2.61395l-.00281-.01084-.01081-.003A5.41954,5.41954,0,0,0,78.69517,7.9212h0a5.41954,5.41954,0,0,0-3.88834,3.51068l-.00834.00752.00229.011A5.40237,5.40237,0,0,0,75.932,16.8733l.00107.00518c1.49989,2.15464,2.22625,1.937,3.01776,4.9444l.074.31625,2.84147-.66483,2.84146-.66483-.074-.31625c-.62491-3.04634.1226-3.17359.51085-5.77l-.00134-.00512A5.39869,5.39869,0,0,0,85.21759,11.97017Z" transform="translate(-28.86418 -4.41734)"/><path class="cls-2" d="M78.782,22.5301l-.148-.633a6.242,6.242,0,0,0-1.698-3.26121,14.6394,14.6394,0,0,1-1.26948-1.57112,5.72568,5.72568,0,0,1-1.20181-5.63514l-.0197-.09641.08006-.07974A5.7434,5.7434,0,0,1,83.9044,9.05112l.10039.02812.03272.10388A5.73282,5.73282,0,0,1,85.53445,11.896v.00016a5.75567,5.75567,0,0,1-.0683,2.87618,14.64616,14.64616,0,0,1-.44063,1.97061,6.257,6.257,0,0,0-.07307,3.68485l.14614.62441Zm-2.54214-5.78063a14.16875,14.16875,0,0,0,1.17926,1.45072,6.84952,6.84952,0,0,1,1.84608,3.54l.0019.0081,5.05-1.18148a6.86034,6.86034,0,0,1,.08228-4,14.16112,14.16112,0,0,0,.41394-1.82908l-.00508-.02208.02287-.08848a5.10746,5.10746,0,0,0,.0699-2.583v.00016a5.08632,5.08632,0,0,0-1.37877-2.45684L83.47807,9.544a5.093,5.093,0,0,0-8.36407,1.9946l-.0054.01731a5.07576,5.07576,0,0,0,1.063,5.09745Z" transform="translate(-28.86418 -4.41734)"/><path class="cls-1" d="M79.301,21.3929h5.59565a.28948.28948,0,0,1,.28948.28948v1.57167a.28949.28949,0,0,1-.28949.28949H79.301a.28948.28948,0,0,1-.28948-.28948V21.68239A.28949.28949,0,0,1,79.301,21.3929Z" transform="translate(-31.82396 14.87729) rotate(-13.16879)"/><path class="cls-2" d="M79.55368,24.48563a.61693.61693,0,0,1-.59884-.47431l-.358-1.53077a.61521.61521,0,0,1,.45874-.73863l5.44865-1.27487a.61532.61532,0,0,1,.73831.45858l.358,1.53029a.61526.61526,0,0,1-.45842.73863l-5.44865,1.27488A.6103.6103,0,0,1,79.55368,24.48563Zm-.31515-2.11834.34152,1.46041,5.37876-1.25836-.34152-1.46057Z" transform="translate(-28.86418 -4.41734)"/><path class="cls-1" d="M83.35411,27.17348a1.85222,1.85222,0,0,0,1.4174-2.01752l-3.58276.83828A1.85225,1.85225,0,0,0,83.35411,27.17348Z" transform="translate(-28.86418 -4.41734)"/><path class="cls-2" d="M82.93006,27.548a2.17487,2.17487,0,0,1-2.0475-1.44436l-.12262-.34326,4.292-1.00421.04257.36184a2.17941,2.17941,0,0,1-2.1644,2.43ZM81.66185,26.2175a1.527,1.527,0,0,0,2.78453-.65142Z" transform="translate(-28.86418 -4.41734)"/><path class="cls-1" d="M85.77391,24.62412l-.35805-1.53033a.29035.29035,0,0,0-.34783-.21593l-5.4485,1.27481a.29035.29035,0,0,0-.21593.34783l.35807,1.53034a.29031.29031,0,0,0,.34781.21591l1.07927-.25251,3.58276-.83828.78647-.184A.29035.29035,0,0,0,85.77391,24.62412Z" transform="translate(-28.86418 -4.41734)"/><path class="cls-2" d="M80.04292,26.57982a.61586.61586,0,0,1-.59789-.47494l-.358-1.53014a.61532.61532,0,0,1,.45842-.73878l5.44865-1.27488a.6175.6175,0,0,1,.73862.4581l.358,1.53094a.61574.61574,0,0,1-.45842.73862l-5.44865,1.27472A.61461.61461,0,0,1,80.04292,26.57982Zm-.3142-2.11865.34152,1.46072L85.449,24.66337l-.34152-1.46056Zm5.72854.23667v0Z" transform="translate(-28.86418 -4.41734)"/><path class="cls-1" d="M81.1442,21.36866l-1.07789-4.60687s-.36181-.89328-1.65115-.5916.38455,1.77419,1.8099.35581a3.26946,3.26946,0,0,0,.74139-1.5334c.13229-.87135-.54057-1.00424-.8448-.93306s-.40382.69041-.17946,1.12688a2.55125,2.55125,0,0,0,1.97414,1.18835c.95582.03612,1.63211-.53468,1.31836-1.02663s-1.7455-.08056-1.71936.81485l1.13552,4.85315" transform="translate(-28.86418 -4.41734)"/><path class="cls-2" d="M80.8276,21.44282l-.98927-4.22762a1.83453,1.83453,0,0,1-1.64435.08768.84947.84947,0,0,1-.562-.81216c.01588-.14551.11691-.49877.70908-.63728a1.8,1.8,0,0,1,1.72281.35866c.0394-.05051.09245-.12215.15122-.21158a2.34324,2.34324,0,0,1-.5623-.66539,1.43844,1.43844,0,0,1-.0521-1.19863.66988.66988,0,0,1,.447-.39362,1.08337,1.08337,0,0,1,.94448.24208,1.12056,1.12056,0,0,1,.29577,1.05647,3.029,3.029,0,0,1-.2246.758c.05051.02732.10229.05321.156.0772a1.46948,1.46948,0,0,1,1.0363-.98833,1.06514,1.06514,0,0,1,1.25327.28481.77988.77988,0,0,1,.01779.83043,1.74771,1.74771,0,0,1-1.55126.698l.99213,4.24049-.63347.14836-1.05217-4.4975a2.855,2.855,0,0,1-.53022-.22413,3.22128,3.22128,0,0,1-.28751.37757c-.01811.01811-.03654.03606-.055.05338l1.05186,4.49479Zm-1.91025-5.00945a1.88631,1.88631,0,0,0-.42824.05353c-.175.041-.21666.09436-.217.09483a.88263.88263,0,0,0,.33929.186A1.26221,1.26221,0,0,0,79.5559,16.63,1.00541,1.00541,0,0,0,78.91735,16.43337Zm2.93289-.38853c.026.00223.0521.00381.07847.00477a1.19709,1.19709,0,0,0,1.03343-.36947.13174.13174,0,0,0-.00159-.15694c-.03208-.05035-.23667-.09832-.5137-.013A.82851.82851,0,0,0,81.85024,16.04484Zm-1.57478-1.67659a.35039.35039,0,0,0-.07942.0081.81971.81971,0,0,0,.03558.66142,1.51991,1.51991,0,0,0,.291.36518,2.30166,2.30166,0,0,0,.12231-.45905.55684.55684,0,0,0-.09435-.48082A.41652.41652,0,0,0,80.27546,14.36825Z" transform="translate(-28.86418 -4.41734)"/><path class="cls-1" d="M138.84,26.52959c2.58557.84523-1.96964,9.8676-4.59872,12.24754s-.63653-10.389-.04617-11.386S135.01748,25.28,138.84,26.52959Z" transform="translate(-28.86418 -4.41734)"/><path class="cls-2" d="M133.66468,39.39754a.71547.71547,0,0,1-.45588-.16647c-1.53952-1.25756.22015-11.185.70653-12.00571.04543-.07672.08864-.15424.13184-.23128.656-1.17512,1.39115-1.91835,4.894-.77372h0a1.39544,1.39544,0,0,1,.93146,1.13366c.568,2.66683-3.11143,9.58081-5.41307,11.6642A1.21118,1.21118,0,0,1,133.66468,39.39754Zm2.5237-13.09681a1.54086,1.54086,0,0,0-1.57318,1.01041c-.04575.0818-.09182.16424-.1401.24573-.49687.839-1.90644,10.31132-.85458,11.17035.09308.07656.33166-.12739.40251-.19125,2.09641-1.89786,5.72154-8.65919,5.21324-11.04629-.10039-.4705-.332-.59678-.49718-.65079h0A8.732,8.732,0,0,0,136.18838,26.30073Z" transform="translate(-28.86418 -4.41734)"/><circle class="cls-1" cx="104.09227" cy="37.22061" r="1.14679"/><path class="cls-2" d="M132.95528,43.11019a1.47222,1.47222,0,1,1,1.40037-1.01485v.00016A1.47489,1.47489,0,0,1,132.95528,43.11019Zm.00032-2.29418a.82171.82171,0,1,0,.78183,1.07728h0a.823.823,0,0,0-.78183-1.07728Z" transform="translate(-28.86418 -4.41734)"/></svg>