<svg width="150" height="40" viewBox="0 0 150 40" fill="none" xmlns="http://www.w3.org/2000/svg">
<g clip-path="url(#clip0_178_11)">
<path d="M33.2064 38.7749C33.181 38.7749 33.1594 38.7749 33.134 38.7749C32.0708 38.7015 31.3439 38.6025 30.2445 38.3787C29.8105 38.2906 29.4669 37.9348 29.3874 37.4909C28.4218 31.9438 28.1397 26.3196 27.9987 22.0382C25.7528 21.9979 23.1309 21.9355 20.5415 21.8291C21.0153 26.5654 21.8579 30.1901 23.2792 33.569C23.4672 34.0129 23.3479 34.5192 22.9826 34.831C22.6174 35.1429 22.1038 35.1759 21.7024 34.9118C21.5288 34.798 21.3588 34.6806 21.1852 34.5559C20.48 34.0496 19.8942 33.4259 19.4493 32.6922C14.0427 23.8286 14.1404 14.4733 19.7278 5.63907C19.9882 5.22818 20.3245 4.86497 20.7296 4.5568C21.1021 4.27431 21.4348 4.03951 21.7711 3.81939C22.1689 3.56258 22.6825 3.59193 23.0441 3.9001C23.413 4.20827 23.5323 4.69988 23.3551 5.14747C22.1689 8.11913 21.3444 11.1128 20.7693 14.5687C23.2973 14.3156 25.8722 14.1762 28.0891 14.0661C28.288 10.2617 28.6062 5.76381 29.3838 1.28798C29.4597 0.847731 29.8033 0.488197 30.2409 0.400148C31.3367 0.176356 32.0672 0.0736322 33.1304 0.0039266C33.4306 -0.014417 33.738 0.0956445 33.955 0.312099C34.172 0.528553 34.2913 0.829388 34.2805 1.13756C33.8284 13.248 33.8284 25.5308 34.2805 37.6413C34.2913 37.9494 34.172 38.2503 33.955 38.4667C33.7524 38.6648 33.4812 38.7749 33.2027 38.7749H33.2064ZM20.5415 20.7248C20.5415 20.7248 20.5704 20.7248 20.5849 20.7248C23.1634 20.8312 25.7818 20.8936 28.0348 20.9413C28.6062 20.956 29.0691 21.4182 29.0872 21.9979C29.2246 26.2426 29.5067 31.819 30.4615 37.2964C31.5211 37.5129 32.1865 37.6046 33.21 37.6743C32.7543 25.5419 32.7543 13.2333 33.2064 1.09354C32.1901 1.17058 31.5247 1.2623 30.4651 1.47875C29.6948 5.89588 29.3801 10.3534 29.174 14.1322C29.1451 14.6935 28.7039 15.1337 28.1505 15.1631C25.9445 15.2731 23.3841 15.4125 20.8742 15.651C20.5415 15.684 20.2124 15.5556 19.981 15.3061C19.7531 15.0567 19.6519 14.7191 19.7097 14.3853C20.2992 10.8486 21.1418 7.7816 22.3606 4.73657C22.046 4.95669 21.7458 5.17315 21.3878 5.44096C21.0876 5.66842 20.8381 5.93624 20.65 6.2334C15.3049 14.6861 15.2108 23.6341 20.3824 32.1125C20.7513 32.7179 21.2359 33.2388 21.8217 33.6571C21.9845 33.7744 22.1436 33.8808 22.3063 33.9872C20.8272 30.5056 19.9556 26.7855 19.4747 21.9282C19.4421 21.6127 19.547 21.3008 19.7604 21.0697C19.9665 20.8496 20.2486 20.7248 20.5451 20.7248H20.5415Z" fill="#BBBBBB"/>
<path d="M38.9167 38.5433C38.6419 38.5433 38.3779 38.4369 38.1754 38.2425C37.933 38.0113 37.8137 37.6812 37.8426 37.3473C38.9384 25.446 38.9384 13.3796 37.8463 1.47827C37.8137 1.12607 37.9439 0.792221 38.2043 0.557423C38.4611 0.326294 38.8155 0.234576 39.1518 0.307951C43.148 1.19945 46.2835 2.52385 49.6323 4.73609C49.8927 4.90852 50.1241 5.12497 50.3158 5.38178C51.1548 6.4824 51.6575 7.27484 52.1855 8.30942C52.3917 8.71298 52.3302 9.19358 52.0372 9.53477C51.7407 9.87596 51.2814 9.99703 50.8583 9.83927C48.6414 9.02115 46.2654 8.38279 43.7917 7.94255C44.1461 10.2795 44.374 12.6972 44.4825 15.1186C47.0755 15.2506 49.8457 15.4047 52.605 15.6725C53.115 15.7202 53.5236 16.1348 53.5779 16.6521C53.7731 18.5268 53.7876 19.7301 53.6249 21.6048C53.5779 22.1441 53.162 22.566 52.6303 22.6064C49.8601 22.8302 47.0863 22.9623 44.4861 23.0797C44.1859 28.1241 43.6688 32.2111 42.8695 35.9385C42.6272 37.0758 41.7484 37.9783 40.6309 38.2388C40.1427 38.3525 39.6617 38.4442 39.0722 38.5323C39.018 38.5396 38.9637 38.5433 38.9131 38.5433H38.9167ZM38.924 1.38288C40.027 13.3429 40.027 25.479 38.924 37.4464C39.4809 37.3546 39.933 37.2703 40.3922 37.1639C41.1011 36.9988 41.6616 36.4228 41.8135 35.7037C42.5983 32.0313 43.1082 27.9957 43.4156 23.0026C43.4482 22.4413 43.893 22.0011 44.4427 21.9791C47.0321 21.8653 49.795 21.7332 52.5472 21.5095C52.7027 19.7118 52.6918 18.5598 52.5038 16.7695C49.7661 16.5017 47.0104 16.3476 44.421 16.2082C43.864 16.1788 43.4265 15.7312 43.4011 15.1662C43.2926 12.7816 43.0684 10.4006 42.7321 8.09296C42.6815 7.74444 42.8008 7.39224 43.0467 7.14644C43.2926 6.9043 43.6398 6.79424 43.9798 6.85294C46.5149 7.30419 48.956 7.96089 51.2308 8.80103C50.7281 7.82882 50.2652 7.10608 49.4623 6.04949C49.343 5.8954 49.1983 5.75599 49.0428 5.65327C45.7663 3.48873 42.8334 2.25237 38.9203 1.37922L38.924 1.38288Z" fill="#BBBBBB"/>
<path d="M50.7317 32.4242H54.2469V28.7188H56.0913V38.1437H54.2469V34.0677H50.7317V38.1437H48.8729V28.7188H50.7317V32.4242Z" fill="#BBBBBB"/>
<path d="M59.6933 38.1437H57.8091L60.7855 28.7188H62.9698L65.957 38.1437H64.0114L63.3604 35.7223H60.3479L59.6969 38.1437H59.6933ZM61.8632 30.1459H61.8126C61.5739 31.1768 61.3099 32.2481 61.0206 33.2276L60.7457 34.2585H62.9554L62.6805 33.2276C62.3912 32.2481 62.1525 31.1658 61.8632 30.1459V30.1459Z" fill="#BBBBBB"/>
<path d="M67.2156 33.4701C67.2156 30.3627 69.1865 28.543 71.5336 28.543C72.7379 28.543 73.6565 29.1043 74.2568 29.7536L73.2768 30.9496C72.8102 30.4911 72.2714 30.1609 71.5698 30.1609C70.163 30.1609 69.1106 31.3826 69.1106 33.4077C69.1106 35.4328 70.0653 36.6949 71.5336 36.6949C72.3365 36.6949 72.9513 36.3133 73.454 35.7667L74.434 36.937C73.6673 37.8652 72.6873 38.3238 71.4722 38.3238C69.1106 38.3238 67.2156 36.6178 67.2156 33.4701V33.4701Z" fill="#BBBBBB"/>
<path d="M78.4158 32.8064H78.4519L81.5259 28.7195H83.5728L80.7375 32.4249L84.0755 38.1444H82.0286L79.6309 33.9144L78.4122 35.4919V38.1408H76.5533V28.7158H78.4122V32.8028L78.4158 32.8064Z" fill="#BBBBBB"/>
<path d="M87.6558 38.1437H85.7969V28.7188H87.6558V38.1437Z" fill="#BBBBBB"/>
<path d="M95.1636 33.7376L96.093 35.7737H96.1545C96.0533 34.7941 95.9158 33.5431 95.9158 32.4755V28.7188H97.6734V38.1437H95.7893L93.1022 33.0992L92.1619 31.0741H92.1005C92.1873 32.094 92.3247 33.279 92.3247 34.3612V38.1437H90.5671V28.7188H92.4621L95.16 33.7376H95.1636Z" fill="#BBBBBB"/>
<path d="M100.136 33.4701C100.136 30.3627 102.133 28.543 104.592 28.543C105.933 28.543 106.863 29.13 107.467 29.7536L106.476 30.9496C106.024 30.5057 105.51 30.1609 104.657 30.1609C103.113 30.1609 102.035 31.3826 102.035 33.4077C102.035 35.4328 102.964 36.6949 104.783 36.6949C105.235 36.6949 105.687 36.5811 105.951 36.339V34.4789H104.306V32.9381H107.608V37.1901C106.968 37.8138 105.901 38.3238 104.595 38.3238C102.046 38.3238 100.14 36.6178 100.14 33.4701H100.136Z" fill="#BBBBBB"/>
<path d="M119.434 30.286H115.568V32.7441H118.869V34.3216H115.568V38.1408H113.709V28.7158H119.434V30.2824V30.286Z" fill="#BBBBBB"/>
<path d="M123.542 38.1437H121.683V28.7188H123.542V38.1437Z" fill="#BBBBBB"/>
<path d="M132.153 30.286H128.312V32.4652H131.578V34.0428H128.312V36.5632H132.29V38.1408H126.453V28.7158H132.153V30.2824V30.286Z" fill="#BBBBBB"/>
<path d="M136.662 36.5632H140.427V38.1408H134.804V28.7158H136.662V36.5595V36.5632Z" fill="#BBBBBB"/>
<path d="M149.819 33.3927C149.819 36.5515 148.062 38.1437 145.324 38.1437H142.677V28.7188H145.226C148.062 28.7188 149.823 30.1972 149.823 33.3927H149.819ZM147.924 33.3927C147.924 31.0887 146.857 30.2229 145.111 30.2229H144.532V36.6285H145.111C146.857 36.6285 147.924 35.6856 147.924 33.3927V33.3927Z" fill="#BBBBBB"/>
<path d="M145.241 23.5206C145.215 23.5206 145.187 23.5206 145.161 23.5182L124.757 21.9271C124.417 21.9011 124.164 21.7122 124.164 21.4903V18.4402C124.164 18.2986 124.269 18.164 124.45 18.0814C124.627 17.9988 124.855 17.9775 125.061 18.0247L145.465 22.6636C145.791 22.7368 145.979 22.9587 145.899 23.1783C145.827 23.3789 145.559 23.5206 145.241 23.5206V23.5206ZM124.884 21.462L144.796 23.013L124.884 18.4851V21.462Z" fill="#BBBBBB"/>
<path d="M145.241 23.5201C145.125 23.5201 145.013 23.4907 144.912 23.432L124.949 12.1727C124.714 12.0407 124.58 11.7802 124.605 11.5087L125.325 3.98783C125.35 3.72735 125.52 3.50356 125.762 3.41184C126.005 3.32012 126.28 3.37882 126.464 3.56226L145.707 22.3424C145.95 22.5809 145.982 22.9661 145.783 23.2412C145.657 23.4137 145.454 23.5201 145.241 23.5201ZM125.329 11.5491L144.937 22.6066L126.037 4.16026L125.332 11.5454L125.329 11.5491Z" fill="#BBBBBB"/>
<path d="M145.325 23.5203C145.263 23.5203 145.202 23.5136 145.144 23.4968L117.352 16.3053C117.076 16.2348 116.877 16.0065 116.859 15.7446C116.841 15.4828 117.004 15.2343 117.265 15.1269L124.726 12.0515C124.926 11.9743 125.147 11.9844 125.328 12.0784L145.651 22.3452C145.953 22.4996 146.079 22.8354 145.949 23.1308C145.844 23.3658 145.601 23.5203 145.325 23.5203V23.5203ZM117.679 15.6943L144.926 22.7447L124.998 12.676L117.679 15.6943Z" fill="#BBBBBB"/>
<path d="M7.5584 29.3721C7.36312 29.3721 7.20037 29.2106 7.19676 29.0125C7.19314 28.8107 7.35227 28.642 7.55117 28.6383C8.48422 28.62 9.53299 28.5393 10.759 28.3888C10.9615 28.3668 11.1387 28.5099 11.1604 28.708C11.1857 28.9098 11.0411 29.0932 10.8458 29.1153C9.59447 29.2693 8.524 29.35 7.56564 29.3721H7.5584ZM4.3289 29.0786C4.29997 29.0786 4.27104 29.0786 4.24211 29.0676C2.9872 28.7484 2.02883 28.1687 1.30916 27.2846C1.18258 27.1305 1.20428 26.8957 1.35617 26.7673C1.51168 26.6389 1.7359 26.6609 1.86609 26.815C2.49174 27.5817 3.30183 28.0697 4.41932 28.3522C4.6146 28.3999 4.73033 28.6016 4.68332 28.7961C4.64354 28.9612 4.49526 29.0749 4.33252 29.0749L4.3289 29.0786ZM14.021 28.6347C13.8474 28.6347 13.6955 28.5099 13.6666 28.3301C13.6341 28.132 13.7643 27.9413 13.9632 27.9082C14.9288 27.7395 16.0028 27.5377 17.1529 27.3066C17.3482 27.2662 17.5398 27.3946 17.5796 27.5964C17.6194 27.7945 17.4892 27.989 17.2939 28.0293C16.1367 28.2604 15.0589 28.4659 14.0861 28.631C14.0644 28.631 14.0463 28.6347 14.0246 28.6347H14.021ZM20.4077 27.3653C20.2413 27.3653 20.0894 27.2479 20.0533 27.0754C20.0099 26.8773 20.1365 26.6829 20.3318 26.6389C21.3371 26.4187 22.3931 26.1839 23.507 25.9271C23.7023 25.8831 23.894 26.0079 23.941 26.206C23.9844 26.4041 23.8614 26.5985 23.6661 26.6462C22.5523 26.903 21.4926 27.1378 20.4836 27.3579C20.4583 27.3653 20.433 27.3653 20.4077 27.3653V27.3653ZM26.7582 25.9161C26.5955 25.9161 26.4436 25.8024 26.4074 25.6336C26.364 25.4355 26.4834 25.2374 26.6786 25.1934C27.6949 24.9549 28.7473 24.7018 29.8467 24.4376C30.042 24.3899 30.2372 24.5147 30.2806 24.7091C30.3277 24.9072 30.2047 25.1053 30.013 25.1494C28.9136 25.4135 27.8576 25.6667 26.845 25.9051C26.8161 25.9125 26.7908 25.9161 26.7618 25.9161H26.7582ZM0.361645 24.4266C0.361645 24.4266 0.350795 24.4266 0.347179 24.4266C0.148273 24.4193 -0.00723464 24.2469 -1.71718e-06 24.0451C0.0397794 23.0289 0.567783 21.9869 1.56954 20.945C1.71059 20.8019 1.93842 20.7983 2.07946 20.9377C2.22051 21.0808 2.22412 21.3119 2.0867 21.455C1.21151 22.3611 0.752222 23.2416 0.723291 24.0671C0.716058 24.2652 0.556933 24.4193 0.361645 24.4193V24.4266ZM33.087 24.3899C32.9243 24.3899 32.776 24.2799 32.7362 24.1111C32.6892 23.913 32.8049 23.7149 33.0002 23.6672C34.0526 23.4031 35.1122 23.1279 36.1465 22.8528C36.3382 22.8014 36.5371 22.9188 36.5877 23.1132C36.6384 23.3077 36.5227 23.5095 36.331 23.5608C35.2931 23.8396 34.2298 24.1148 33.1738 24.3789C33.1449 24.3863 33.1159 24.3899 33.087 24.3899V24.3899ZM39.376 22.706C39.2169 22.706 39.0723 22.5996 39.0289 22.4382C38.9746 22.2437 39.0867 22.042 39.2784 21.9869C40.3127 21.6934 41.3615 21.3853 42.3958 21.0734C42.5911 21.0184 42.79 21.1285 42.8442 21.3192C42.9021 21.5137 42.7936 21.7191 42.6019 21.7742C41.5604 22.086 40.508 22.3978 39.4737 22.6913C39.4411 22.7023 39.4086 22.706 39.376 22.706V22.706ZM45.6108 20.8276C45.4553 20.8276 45.3143 20.7286 45.2673 20.5708C45.2058 20.3764 45.3143 20.1709 45.5059 20.1122C46.562 19.7784 47.589 19.4409 48.598 19.107C48.7897 19.0446 48.9922 19.151 49.0537 19.3418C49.1152 19.5326 49.0139 19.7417 48.8222 19.8041C47.8096 20.1416 46.7789 20.4754 45.7193 20.813C45.6832 20.824 45.647 20.8313 45.6108 20.8313V20.8276ZM4.39038 19.5399C4.27104 19.5399 4.1517 19.4775 4.08298 19.3675C3.97449 19.195 4.02512 18.9713 4.19509 18.8612C5.03773 18.3219 6.01056 17.7789 7.08465 17.247C7.26547 17.1589 7.48246 17.2323 7.56925 17.4157C7.65605 17.5992 7.58372 17.8193 7.4029 17.9073C6.35051 18.4283 5.40299 18.9566 4.58206 19.4812C4.52058 19.5216 4.45548 19.5399 4.39038 19.5399V19.5399ZM51.795 18.7805C51.6431 18.7805 51.502 18.6851 51.4514 18.531C51.3863 18.3402 51.4876 18.1311 51.6792 18.0651C52.7244 17.7055 53.7479 17.3497 54.7532 16.9975C54.9413 16.9315 55.1474 17.0342 55.2125 17.2249C55.2776 17.4157 55.1764 17.6248 54.9883 17.6909C53.9793 18.0431 52.9559 18.4026 51.9071 18.7621C51.8673 18.7768 51.8311 18.7805 51.7914 18.7805H51.795ZM57.943 16.6269C57.7947 16.6269 57.6536 16.5316 57.603 16.3811C57.5379 16.1904 57.6356 15.9813 57.8236 15.9152C58.8579 15.5483 59.8814 15.1851 60.8976 14.8293C61.0857 14.7632 61.2918 14.866 61.3569 15.0567C61.422 15.2475 61.3207 15.4566 61.1327 15.5227C60.1201 15.8785 59.0966 16.2417 58.0623 16.6086C58.0225 16.6233 57.9827 16.6306 57.943 16.6306V16.6269ZM10.2274 16.6086C10.0827 16.6086 9.94889 16.5206 9.89102 16.3775C9.81508 16.1904 9.90549 15.9776 10.0899 15.9005C11.8548 15.1815 13.1748 14.7559 13.1856 14.7522C13.3737 14.6899 13.5798 14.7999 13.6377 14.9907C13.6955 15.1815 13.5907 15.3906 13.4026 15.4493C13.3881 15.453 12.0971 15.8675 10.3575 16.5793C10.3141 16.5976 10.2671 16.6049 10.2237 16.6049L10.2274 16.6086ZM64.0909 14.4697C63.9391 14.4697 63.798 14.3744 63.7474 14.2203C63.6823 14.0295 63.7835 13.8204 63.9752 13.7543C65.0059 13.4021 66.0366 13.0536 67.0673 12.7161C67.259 12.6537 67.4615 12.7601 67.523 12.9546C67.5844 13.149 67.4796 13.3545 67.2879 13.4168C66.2608 13.7543 65.2337 14.0992 64.2031 14.4514C64.1633 14.4661 64.1271 14.4697 64.0873 14.4697H64.0909ZM70.2859 12.4519C70.1304 12.4519 69.9858 12.3492 69.9388 12.1915C69.8809 11.997 69.9894 11.7916 70.1811 11.7329C71.2443 11.41 72.3003 11.1019 73.3165 10.8194C73.5082 10.768 73.7071 10.8817 73.7614 11.0762C73.8156 11.2706 73.6999 11.4724 73.5082 11.5274C72.4992 11.8099 71.4468 12.1144 70.3908 12.4373C70.3547 12.4483 70.3221 12.4519 70.2859 12.4519V12.4519ZM76.5605 10.713C76.3978 10.713 76.2495 10.5992 76.2097 10.4342C76.1627 10.236 76.282 10.0379 76.4773 9.99024C77.5406 9.72609 78.611 9.48029 79.6598 9.2565C79.8551 9.21247 80.0468 9.34088 80.0902 9.53899C80.1336 9.7371 80.007 9.93154 79.8117 9.97557C78.7702 10.1994 77.7069 10.4452 76.6509 10.7056C76.622 10.713 76.5931 10.7166 76.5641 10.7166L76.5605 10.713ZM82.9219 9.34822C82.7483 9.34822 82.5964 9.22348 82.5674 9.04738C82.5313 8.84927 82.6615 8.6585 82.8604 8.62181C83.6524 8.47873 84.4625 8.33932 85.2689 8.21458C85.5402 8.17056 85.8114 8.1302 86.0827 8.08985C86.2779 8.0605 86.466 8.19991 86.4949 8.39802C86.5239 8.5998 86.3864 8.78323 86.1911 8.81625C85.9235 8.85661 85.6523 8.89696 85.3811 8.94099C84.5818 9.06572 83.779 9.20147 82.9906 9.34822C82.9689 9.35188 82.9472 9.35555 82.9255 9.35555L82.9219 9.34822ZM118.526 9.16845C118.501 9.16845 118.475 9.16845 118.45 9.16111C117.459 8.94833 116.389 8.75022 115.268 8.57412C115.069 8.54477 114.935 8.35399 114.967 8.15588C114.996 7.9541 115.184 7.81836 115.38 7.85138C116.515 8.03115 117.6 8.22926 118.602 8.44571C118.797 8.48607 118.924 8.68051 118.88 8.88229C118.844 9.05472 118.696 9.17212 118.526 9.17212V9.16845ZM89.3592 8.37967C89.1783 8.37967 89.0228 8.24393 89.0011 8.05683C88.9758 7.85505 89.1205 7.67161 89.3194 7.6496C90.3971 7.5212 91.4893 7.4038 92.567 7.30474C92.7767 7.28273 92.9431 7.43682 92.9612 7.63859C92.9792 7.84037 92.831 8.02014 92.6321 8.03482C91.5616 8.13387 90.4767 8.2476 89.4062 8.37601C89.3917 8.37601 89.3773 8.37601 89.3628 8.37601L89.3592 8.37967ZM112.096 8.14488C112.096 8.14488 112.071 8.14488 112.056 8.14488C111.004 8.02748 109.915 7.92475 108.827 7.84771C108.628 7.83304 108.479 7.65694 108.494 7.45516C108.508 7.25338 108.686 7.09929 108.881 7.11764C109.977 7.19835 111.072 7.30107 112.136 7.41847C112.335 7.44048 112.476 7.62392 112.454 7.82203C112.432 8.00913 112.277 8.14855 112.096 8.14855V8.14488ZM95.8435 7.78901C95.6518 7.78901 95.4927 7.63859 95.4818 7.44415C95.471 7.24237 95.6229 7.06627 95.8218 7.05527C96.9067 6.98923 98.0025 6.94154 99.0838 6.90852C99.3008 6.90852 99.4491 7.06261 99.4563 7.26439C99.4636 7.46616 99.3044 7.63493 99.1055 7.64226C98.0314 7.67161 96.9393 7.72297 95.8652 7.78901C95.8579 7.78901 95.8507 7.78901 95.8435 7.78901V7.78901ZM105.604 7.66794C105.604 7.66794 105.593 7.66794 105.59 7.66794C104.516 7.62759 103.424 7.60558 102.346 7.60191C102.147 7.60191 101.984 7.43681 101.984 7.23504C101.984 7.03326 102.147 6.86816 102.346 6.86816C103.431 6.86816 104.53 6.89385 105.612 6.9342C105.81 6.94154 105.966 7.1103 105.959 7.31575C105.951 7.51386 105.792 7.66794 105.597 7.66794H105.604Z" fill="#BBBBBB"/>
</g>
<defs>
<clipPath id="clip0_178_11">
<rect width="150" height="40" fill="white"/>
</clipPath>
</defs>
</svg>
