<?xml version="1.0" encoding="UTF-8"?><svg id="a" xmlns="http://www.w3.org/2000/svg" xmlns:xlink="http://www.w3.org/1999/xlink" viewBox="0 0 414.77 109.03"><defs><style>.d,.e{fill:#fff;}.f{filter:url(#b);}.g{fill:#2aac69;}.e{stroke:#fff;stroke-miterlimit:10;}.h{fill:#2ea466;}</style><filter id="b" filterUnits="userSpaceOnUse"><feOffset dx="0" dy="0"/><feGaussianBlur result="c" stdDeviation="0"/><feFlood flood-color="#457973" flood-opacity="0"/><feComposite in2="c" operator="in"/><feComposite in="SourceGraphic"/></filter></defs><path class="g" d="M58.88,64.45c1.15,11.37,3.24,22.02,7.69,32.47,.57,1.34-.94,2.61-2.16,1.82s-2.38-1.63-3.87-2.78c-.13-.1-.26-.23-.35-.37-16.38-24.62-16.39-51.16,0-75.79,.09-.14,.22-.27,.35-.37,1.56-1.2,2.76-2.07,4.05-2.9,1.21-.78,2.72,.46,2.18,1.79-3.46,8.52-5.68,16.78-7.24,25.99-.16,.96,.64,1.8,1.6,1.71,6.72-.63,13.45-1,20.19-1.34,.76-.04,1.36-.64,1.4-1.4,.64-11.61,1.56-23.2,3.58-34.67,.11-.6,.58-1.08,1.18-1.2,2.92-.59,4.87-.86,7.79-1.06,.88-.06,1.62,.65,1.58,1.53-1.25,33.2-1.25,66.41,0,99.62,.03,.88-.7,1.59-1.58,1.53-2.93-.2-4.88-.47-7.79-1.06-.6-.12-1.07-.6-1.18-1.2-2.45-13.85-3.35-27.88-3.82-41.92-.03-.79-.66-1.41-1.45-1.43-6.88-.15-13.76-.31-20.63-.59-.9-.04-1.63,.73-1.54,1.62Z"/><path class="g" d="M115.59,107.61c-1.34,.31-2.63,.55-4.2,.78-.95,.14-1.78-.65-1.69-1.6,3.05-32.66,3.05-65.39,.01-98.05-.09-1,.82-1.8,1.8-1.58,11,2.42,19.54,5.95,29.14,12.29,.14,.09,.27,.21,.37,.34,2.5,3.19,3.96,5.36,5.52,8.4,.62,1.2-.56,2.53-1.83,2.07-6.42-2.34-13.07-4.06-19.8-5.24-.99-.17-1.85,.69-1.71,1.68,.95,6.41,1.57,12.96,1.86,19.42,.03,.76,.64,1.37,1.4,1.41,7.49,.39,14.96,.82,22.43,1.53,.7,.07,1.26,.63,1.34,1.33,.53,5,.57,8.2,.12,13.21-.06,.72-.64,1.31-1.37,1.36-7.48,.6-14.97,.95-22.47,1.28-.76,.03-1.36,.63-1.41,1.39-.73,11.78-1.96,23.34-4.46,34.85-.55,2.54-2.52,4.54-5.06,5.12Z"/><path class="d" d="M91.82,105.69c-.07,0-.13,0-.2,0-2.94-.2-4.95-.47-7.99-1.08-1.2-.24-2.15-1.21-2.37-2.42-2.67-15.12-3.45-30.45-3.84-42.12-6.21-.11-13.46-.28-20.62-.57,1.31,12.91,3.64,22.79,7.57,32,.52,1.21,.19,2.59-.82,3.44-1.01,.85-2.43,.94-3.54,.22-.48-.31-.95-.63-1.43-.97-1.95-1.38-3.57-3.08-4.8-5.08-14.95-24.16-14.68-49.66,.77-73.74,.72-1.12,1.65-2.11,2.77-2.95,1.03-.77,1.95-1.41,2.88-2.01,1.1-.7,2.52-.62,3.52,.22,1.02,.84,1.35,2.18,.86,3.4-3.28,8.1-5.56,16.26-7.15,25.68,6.99-.69,14.11-1.07,20.24-1.37,.55-10.37,1.43-22.63,3.58-34.83,.21-1.2,1.16-2.18,2.37-2.42,3.03-.61,5.05-.89,7.99-1.08,.83-.05,1.68,.25,2.28,.84,.6,.59,.93,1.41,.9,2.25-1.25,33.01-1.25,66.49,0,99.5,.03,.84-.3,1.66-.9,2.25-.56,.54-1.31,.84-2.08,.84ZM56.8,56.49s.08,0,.12,0c7.13,.29,14.37,.46,20.6,.59,1.58,.04,2.86,1.3,2.91,2.88,.38,11.57,1.16,26.77,3.8,41.7,2.93,.59,4.77,.84,7.6,1.03-1.26-33.07-1.26-66.62-.01-99.71-2.81,.21-4.65,.46-7.58,1.05-2.13,12.04-3,24.19-3.57,34.49-.08,1.53-1.3,2.73-2.83,2.81-6.1,.3-13.18,.68-20.12,1.33-.92,.09-1.83-.26-2.47-.94-.63-.68-.91-1.6-.75-2.51,1.63-9.64,3.96-18,7.33-26.3-.87,.6-1.7,1.19-2.69,1.92-.83,.62-1.52,1.35-2.04,2.16-14.78,23.04-15.04,47.43-.74,70.54,1.02,1.65,2.36,3.07,3.98,4.21,.45,.32,.89,.61,1.34,.9-4.09-9.49-6.5-19.63-7.83-32.87-.09-.86,.2-1.71,.79-2.34,.57-.6,1.35-.94,2.17-.94Z"/><path class="d" d="M107.61,105.06c-.76,0-1.49-.29-2.05-.82-.67-.63-1-1.53-.92-2.44,3.03-32.44,3.03-65.33,.01-97.77-.09-.96,.27-1.87,.99-2.51,.71-.63,1.69-.88,2.62-.68,11.05,2.43,19.72,6.04,28.98,12.07,.72,.47,1.36,1.06,1.89,1.76,2.32,3,3.71,5.16,5.17,7.98,.57,1.1,.4,2.41-.41,3.34-.82,.93-2.09,1.26-3.26,.83-6.13-2.23-12.7-3.97-19.54-5.17,.98,6.37,1.61,12.96,1.91,19.56,7.17,.36,14.83,.78,22.46,1.51,1.41,.13,2.54,1.26,2.69,2.67,.54,5.11,.58,8.39,.13,13.5-.13,1.47-1.28,2.62-2.75,2.73-7.66,.61-15.33,.97-22.52,1.29-.83,13.75-2.26,24.89-4.47,35.05-.67,3.1-3.1,5.56-6.19,6.27h0c-1.35,.31-2.68,.56-4.31,.8-.15,.02-.3,.03-.44,.03Zm.02-101.29c3.05,32.6,3.05,65.68,0,98.3,1.54-.25,2.79-.48,4.06-.77h0c1.96-.45,3.51-2.02,3.93-3.98,2.17-10.01,3.58-21.01,4.43-34.62,.09-1.53,1.32-2.73,2.84-2.79,7.16-.31,14.8-.67,22.41-1.28,.43-4.9,.4-8.04-.12-12.92-7.57-.73-15.19-1.15-22.35-1.53-1.54-.08-2.75-1.3-2.82-2.84-.3-6.5-.92-12.99-1.85-19.28-.14-.95,.19-1.91,.87-2.58,.68-.66,1.64-.96,2.58-.8,7.01,1.23,13.76,3.02,20.05,5.31-1.39-2.65-2.67-4.62-4.89-7.5-.33-.42-.73-.8-1.16-1.08-9.06-5.9-17.17-9.27-27.99-11.65Z"/><g class="f"><path class="e" d="M140.28,88.38h9.72v-10.1h5.1v25.69h-5.1v-11.11h-9.72v11.11h-5.14v-25.69h5.14v10.1Z"/><path class="e" d="M165.06,103.97h-5.21l8.23-25.69h6.04l8.26,25.69h-5.38l-1.8-6.6h-8.33l-1.8,6.6Zm6-21.8h-.14c-.66,2.81-1.39,5.73-2.19,8.4l-.76,2.81h6.11l-.76-2.81c-.8-2.67-1.46-5.62-2.26-8.4Z"/><path class="e" d="M185.86,91.23c0-8.47,5.45-13.43,11.94-13.43,3.33,0,5.87,1.53,7.53,3.3l-2.71,3.26c-1.29-1.25-2.78-2.15-4.72-2.15-3.89,0-6.8,3.33-6.8,8.85s2.64,8.96,6.7,8.96c2.22,0,3.92-1.04,5.31-2.53l2.71,3.19c-2.12,2.53-4.83,3.78-8.19,3.78-6.53,0-11.77-4.65-11.77-13.23Z"/><path class="e" d="M216.83,89.42h.1l8.5-11.14h5.66l-7.84,10.1,9.23,15.59h-5.66l-6.63-11.53-3.37,4.3v7.22h-5.14v-25.69h5.14v11.14Z"/><path class="e" d="M242.38,103.97h-5.14v-25.69h5.14v25.69Z"/><path class="e" d="M263.14,91.96l2.57,5.55h.17c-.28-2.67-.66-6.08-.66-8.99v-10.24h4.86v25.69h-5.21l-7.43-13.75-2.6-5.52h-.17c.24,2.78,.62,6.01,.62,8.96v10.31h-4.86v-25.69h5.24l7.46,13.68Z"/><path class="e" d="M276.89,91.23c0-8.47,5.52-13.43,12.32-13.43,3.71,0,6.28,1.6,7.95,3.3l-2.74,3.26c-1.25-1.21-2.67-2.15-5.03-2.15-4.27,0-7.25,3.33-7.25,8.85s2.57,8.96,7.6,8.96c1.25,0,2.5-.31,3.23-.97v-5.07h-4.55v-4.2h9.13v11.59c-1.77,1.7-4.72,3.09-8.33,3.09-7.05,0-12.32-4.65-12.32-13.23Z"/><path class="e" d="M330.25,82.55h-10.69v6.7h9.13v4.3h-9.13v10.41h-5.14v-25.69h15.83v4.27Z"/><path class="e" d="M341.61,103.97h-5.14v-25.69h5.14v25.69Z"/><path class="e" d="M365.42,82.55h-10.62v5.94h9.03v4.3h-9.03v6.87h11v4.3h-16.14v-25.69h15.76v4.27Z"/><path class="e" d="M377.89,99.66h10.41v4.3h-15.55v-25.69h5.14v21.38Z"/><path class="e" d="M414.27,91.02c0,8.61-4.86,12.95-12.43,12.95h-7.32v-25.69h7.05c7.84,0,12.71,4.03,12.71,12.74Zm-5.24,0c0-6.28-2.95-8.64-7.78-8.64h-1.6v17.46h1.6c4.83,0,7.78-2.57,7.78-8.82Z"/></g><g><path class="h" d="M401.9,61.42l-56.42-19.65c-.26-.09-.56-.05-.79,.11-.23,.16-.36,.42-.36,.71v12.92c0,.44,.33,.81,.76,.86l56.42,6.73s.07,0,.1,0c.4,0,.75-.27,.84-.67,.1-.43-.14-.87-.56-1.01Z"/><path class="d" d="M401.61,64.11c-.07,0-.15,0-.22-.01l-56.42-6.74c-.94-.11-1.64-.91-1.64-1.85v-12.92c0-.6,.29-1.17,.79-1.52,.49-.35,1.12-.44,1.69-.24l56.42,19.65c.9,.31,1.42,1.25,1.2,2.18-.2,.85-.94,1.45-1.82,1.45Zm-.05-1.74h0Zm-56.24-6.98l55.06,6.57-55.06-19.18v12.61Z"/></g><g><path class="h" d="M402.21,61.62l-53.22-51.19c-.24-.23-.59-.3-.9-.19-.31,.11-.53,.4-.56,.73l-1.99,20.5c-.03,.34,.14,.67,.44,.84l55.2,30.69c.13,.07,.28,.11,.42,.11,.27,0,.53-.12,.7-.35,.26-.35,.22-.84-.1-1.14Z"/><path class="d" d="M401.61,64.11c-.32,0-.63-.08-.91-.24l-55.2-30.69c-.65-.36-1.02-1.07-.95-1.81l1.99-20.5c.07-.71,.54-1.32,1.21-1.57,.67-.25,1.43-.09,1.94,.41l53.21,51.19c.67,.65,.76,1.7,.21,2.45-.35,.47-.91,.76-1.5,.76Zm-55.06-32.63l54.22,30.14-52.26-50.28-1.95,20.13Z"/></g><g><path class="h" d="M402.03,61.48l-56.04-30.59c-.23-.13-.52-.14-.76-.04l-20.58,9.17c-.34,.15-.54,.49-.52,.85,.03,.36,.28,.67,.63,.77l76.62,21.42c.08,.02,.16,.03,.23,.03,.34,0,.66-.21,.8-.54,.17-.41,0-.87-.38-1.08Z"/><path class="d" d="M401.61,64.11c-.17,0-.34-.02-.5-.07l-76.62-21.42c-.76-.21-1.31-.89-1.36-1.67-.05-.78,.4-1.52,1.12-1.84l20.57-9.16c.55-.23,1.16-.2,1.66,.08l56.03,30.58c.83,.46,1.18,1.46,.82,2.34-.29,.7-.96,1.16-1.72,1.16Zm-76.22-23.31l75.12,21-54.94-29.99-20.18,8.99Zm-.33,.15h0Zm20.46-9.17h0Z"/></g><path class="d" d="M20.9,80.06c-.54,0-.99-.44-1-.98-.01-.55,.43-1.01,.98-1.02,2.58-.05,5.48-.27,8.87-.68,.56-.06,1.05,.33,1.11,.87,.07,.55-.33,1.05-.87,1.11-3.46,.42-6.42,.64-9.07,.7h-.02Zm-8.93-.8c-.08,0-.16,0-.24-.03-3.47-.87-6.12-2.45-8.11-4.86-.35-.42-.29-1.06,.13-1.41,.43-.35,1.05-.29,1.41,.13,1.73,2.09,3.97,3.42,7.06,4.19,.54,.13,.86,.68,.73,1.21-.11,.45-.52,.76-.97,.76Zm26.8-1.21c-.48,0-.9-.34-.98-.83-.09-.54,.27-1.06,.82-1.15,2.67-.46,5.64-1.01,8.82-1.64,.54-.11,1.07,.24,1.18,.79,.11,.54-.25,1.07-.79,1.18-3.2,.63-6.18,1.19-8.87,1.64-.06,0-.11,.01-.17,.01Zm17.66-3.46c-.46,0-.88-.32-.98-.79-.12-.54,.23-1.07,.77-1.19,2.78-.6,5.7-1.24,8.78-1.94,.54-.12,1.07,.22,1.2,.76,.12,.54-.22,1.07-.76,1.2-3.08,.7-6.01,1.34-8.8,1.94-.07,.02-.14,.02-.21,.02Zm17.56-3.95c-.45,0-.87-.31-.97-.77-.12-.54,.21-1.08,.75-1.2,2.81-.65,5.72-1.34,8.76-2.06,.54-.13,1.08,.21,1.2,.74,.13,.54-.21,1.08-.74,1.2-3.04,.72-5.96,1.41-8.76,2.06-.08,.02-.15,.03-.23,.03ZM1,66.58s-.03,0-.04,0c-.55-.02-.98-.49-.96-1.04,.11-2.77,1.57-5.61,4.34-8.45,.39-.39,1.02-.4,1.41-.02,.39,.39,.4,1.02,.02,1.41-2.42,2.47-3.69,4.87-3.77,7.12-.02,.54-.46,.96-1,.96Zm90.49-.1c-.45,0-.86-.3-.97-.76-.13-.54,.19-1.08,.73-1.21,2.91-.72,5.84-1.47,8.7-2.22,.53-.14,1.08,.18,1.22,.71s-.18,1.08-.71,1.22c-2.87,.76-5.81,1.51-8.73,2.23-.08,.02-.16,.03-.24,.03Zm17.39-4.59c-.44,0-.84-.29-.96-.73-.15-.53,.16-1.08,.69-1.23,2.86-.8,5.76-1.64,8.62-2.49,.54-.15,1.09,.15,1.24,.67,.16,.53-.14,1.09-.67,1.24-2.88,.85-5.79,1.7-8.65,2.5-.09,.03-.18,.04-.27,.04Zm17.24-5.12c-.43,0-.82-.27-.95-.7-.17-.53,.13-1.09,.66-1.25,2.92-.91,5.76-1.83,8.55-2.74,.53-.17,1.09,.12,1.26,.64,.17,.52-.11,1.09-.64,1.26-2.8,.92-5.65,1.83-8.58,2.75-.1,.03-.2,.05-.3,.05Zm-113.98-3.51c-.33,0-.66-.17-.85-.47-.3-.47-.16-1.08,.31-1.38,2.33-1.47,5.02-2.95,7.99-4.4,.5-.24,1.1-.04,1.34,.46,.24,.5,.04,1.1-.46,1.34-2.91,1.42-5.53,2.86-7.8,4.29-.17,.11-.35,.16-.53,.16Zm131.08-2.07c-.42,0-.81-.26-.95-.68-.18-.52,.1-1.09,.63-1.27,2.89-.98,5.72-1.95,8.5-2.91,.52-.18,1.09,.1,1.27,.62,.18,.52-.1,1.09-.62,1.27-2.79,.96-5.62,1.94-8.52,2.92-.11,.04-.21,.05-.32,.05Zm17-5.87c-.41,0-.8-.26-.94-.67-.18-.52,.09-1.09,.61-1.27,2.86-1,5.69-1.99,8.5-2.96,.52-.18,1.09,.1,1.27,.62,.18,.52-.1,1.09-.62,1.27-2.8,.97-5.63,1.96-8.49,2.96-.11,.04-.22,.06-.33,.06Zm-131.94-.05c-.4,0-.77-.24-.93-.63-.21-.51,.04-1.09,.55-1.3,4.88-1.96,8.53-3.12,8.56-3.13,.52-.17,1.09,.13,1.25,.65s-.13,1.09-.65,1.25c-.04,.01-3.61,1.14-8.42,3.08-.12,.05-.25,.07-.37,.07Zm148.94-5.83c-.42,0-.81-.26-.95-.68-.18-.52,.1-1.09,.63-1.27,2.85-.96,5.7-1.91,8.55-2.83,.53-.17,1.09,.12,1.26,.65,.17,.53-.12,1.09-.65,1.26-2.84,.92-5.68,1.86-8.53,2.82-.11,.04-.21,.05-.32,.05Zm17.13-5.5c-.43,0-.83-.28-.96-.71-.16-.53,.14-1.09,.67-1.25,2.94-.88,5.86-1.72,8.67-2.49,.53-.14,1.08,.17,1.23,.7,.15,.53-.17,1.08-.7,1.23-2.79,.77-5.7,1.6-8.62,2.48-.1,.03-.19,.04-.29,.04Zm17.35-4.74c-.45,0-.86-.31-.97-.76-.13-.54,.2-1.08,.74-1.21,2.94-.72,5.9-1.39,8.8-2,.54-.12,1.07,.23,1.19,.77s-.23,1.07-.77,1.19c-2.88,.61-5.82,1.28-8.74,1.99-.08,.02-.16,.03-.24,.03Zm17.59-3.72c-.48,0-.9-.34-.98-.82-.1-.54,.26-1.06,.81-1.16,2.19-.39,4.43-.77,6.66-1.11,.75-.12,1.5-.23,2.25-.34,.54-.08,1.06,.3,1.14,.84,.08,.55-.3,1.05-.84,1.14-.74,.11-1.49,.22-2.24,.34-2.21,.34-4.43,.71-6.61,1.11-.06,.01-.12,.02-.18,.02Zm98.45-.49c-.07,0-.14,0-.21-.02-2.74-.58-5.7-1.12-8.8-1.6-.55-.08-.92-.6-.83-1.14,.08-.55,.6-.92,1.14-.83,3.14,.49,6.14,1.03,8.91,1.62,.54,.11,.89,.64,.77,1.19-.1,.47-.51,.79-.98,.79Zm-80.65-2.15c-.5,0-.93-.37-.99-.88-.07-.55,.33-1.05,.88-1.11,2.98-.35,6-.67,8.98-.94,.58-.06,1.04,.36,1.09,.91,.05,.55-.36,1.04-.91,1.08-2.96,.27-5.96,.58-8.92,.93-.04,0-.08,0-.12,0Zm62.87-.64s-.07,0-.11,0c-2.91-.32-5.92-.6-8.93-.81-.55-.04-.96-.52-.92-1.07,.04-.55,.53-.97,1.07-.92,3.03,.22,6.06,.5,9,.82,.55,.06,.94,.56,.88,1.1-.06,.51-.49,.89-.99,.89Zm-44.94-.97c-.53,0-.97-.41-1-.94-.03-.55,.39-1.03,.94-1.06,3-.18,6.03-.31,9.02-.4,.6,0,1.01,.42,1.03,.97,.02,.55-.42,1.01-.97,1.03-2.97,.08-5.99,.22-8.96,.4-.02,0-.04,0-.06,0Zm26.99-.33s-.03,0-.04,0c-2.97-.11-5.99-.17-8.97-.18-.55,0-1-.45-1-1s.45-1,1-1h0c3,0,6.04,.07,9.03,.18,.55,.02,.98,.48,.96,1.04-.02,.54-.46,.96-1,.96Z"/></svg>